<svg xmlns="http://www.w3.org/2000/svg" width="20" height="23.099" viewBox="0 0 20 23.099">
  <g id="location" transform="translate(-275 -1200)">
    <g id="Path_324" data-name="Path 324" transform="translate(295 1200) rotate(90)" fill="none" stroke-miterlimit="10">
      <path d="M5.775,20h11.55L23.1,10,17.324,0H5.775L0,10Z" stroke="none"/>
      <path d="M 16.74710273742676 18.9999828338623 L 21.94442749023438 9.999987602233887 L 16.74709701538086 1.000002384185791 L 6.352073669433594 1.000002384185791 L 1.154763698577881 9.999982833862305 L 6.35207462310791 18.9999828338623 L 16.74710273742676 18.9999828338623 M 17.32438850402832 19.9999828338623 L 5.774787902832031 19.9999828338623 L -2.25982671508973e-06 9.999982833862305 L 5.774787902832031 2.370605443502427e-06 L 17.32438850402832 2.370605443502427e-06 L 23.09919738769531 9.999982833862305 L 17.32438850402832 19.9999828338623 Z" stroke="none" fill="#7a93c4"/>
    </g>
    <path id="Path_528" data-name="Path 528" d="M2455.718-260.739a4.4,4.4,0,0,0-4.4,4.4,4.417,4.417,0,0,0,.158,1.175c.02.07.041.14.064.209v0c.6,2.669,3.949,5.987,4.179,6.212.23-.226,3.575-3.543,4.179-6.212v0q.035-.1.064-.209a4.4,4.4,0,0,0,.158-1.175A4.4,4.4,0,0,0,2455.718-260.739Zm0,6.353a1.953,1.953,0,0,1-1.881-1.43,1.973,1.973,0,0,1-.07-.521,1.952,1.952,0,0,1,1.952-1.951,1.951,1.951,0,0,1,1.951,1.951A1.951,1.951,0,0,1,2455.718-254.386Z" transform="translate(-2170.816 1466.239)" fill="none" stroke="#7a93c4" stroke-width="1"/>
  </g>
</svg>
