<svg xmlns="http://www.w3.org/2000/svg" width="20.017" height="23.354" viewBox="0 0 20.017 23.354">
  <g id="mail" transform="translate(-2607.111 -714)">
    <g id="Path_293" data-name="Path 293" transform="translate(2287.704 1154.711)" fill="none" stroke-miterlimit="10">
      <path d="M339.425-423.2v-11.677l-10.009-5.838-10.009,5.838V-423.2l10.009,5.838Z" stroke="none"/>
      <path d="M 329.4161071777344 -418.5152282714844 L 338.4248046875 -423.7703247070313 L 338.4248046875 -434.2983703613281 L 329.4161071777344 -439.553466796875 L 320.4074096679688 -434.2983703613281 L 320.4074096679688 -423.7703247070313 L 329.4161071777344 -418.5152282714844 M 329.4161071777344 -417.3575134277344 L 319.4074096679688 -423.1959533691406 L 319.4074096679688 -434.8727416992188 L 329.4161071777344 -440.711181640625 L 339.4248046875 -434.8727416992188 L 339.4248046875 -423.1959533691406 L 329.4161071777344 -417.3575134277344 Z" stroke="none" fill="#7a93c4"/>
    </g>
    <g id="Path_295" data-name="Path 295" transform="translate(2287.704 1154.711)" fill="none" stroke-miterlimit="10">
      <path d="M329.416-440.711l-10.009,5.838,10.009,17.515,10.009-5.838Z" stroke="none"/>
      <path d="M 329.0484619140625 -439.3390197753906 L 320.7673645019531 -434.5083618164063 L 329.7837524414063 -418.7296752929688 L 338.0648498535156 -423.5603332519531 L 329.0484619140625 -439.3390197753906 M 329.4161071777344 -440.711181640625 L 339.4248046875 -423.1959533691406 L 329.4161071777344 -417.3575134277344 L 319.4074096679688 -434.8727416992188 L 329.4161071777344 -440.711181640625 Z" stroke="none" fill="#7a93c4"/>
    </g>
    <path id="Path_296" data-name="Path 296" d="M344.945-440.711l-2.09,12.384,11.66,4.363" transform="translate(2272.347 1155.095)" fill="none" stroke="#7a93c4" stroke-miterlimit="10" stroke-width="1"/>
    <line id="Line_168" data-name="Line 168" x1="7.987" y1="3.161" transform="translate(2607.611 719.854)" fill="none" stroke="#7a93c4" stroke-miterlimit="10" stroke-width="1"/>
    <line id="Line_169" data-name="Line 169" y1="7.514" x2="1.03" transform="translate(2617.611 728.339)" fill="none" stroke="#7a93c4" stroke-miterlimit="10" stroke-width="1"/>
  </g>
</svg>
