<svg xmlns="http://www.w3.org/2000/svg" width="397" height="303.33" viewBox="0 0 397 303.33">
  <g id="awards-card-bg" transform="translate(-1203 -4696)">
    <g id="Group_108" data-name="Group 108" transform="translate(1411.419 4696)">
      <path id="Path_235" data-name="Path 235" d="M2802.857,2331.239c-6.073-8.131-8.953-16.888-6.735-26.931,2.006-9.083,7-16.612,12.51-23.856,1.558-2.046,3.206-4.023,5.048-6.328,3.714,12.619,7.131,24.847,3.91,37.747C2815.474,2320.348,2810.276,2326.537,2802.857,2331.239Z" transform="translate(-2648.136 -2220.185)" fill="#fff6f5"/>
      <path id="Path_236" data-name="Path 236" d="M2502.664,2828.671c-6.408,1.115-12.794,2.391-19.233,3.3a42.992,42.992,0,0,1-17.552-1.174c-8.7-2.4-14.894-7.861-19.5-15.7,6.914-4.753,14.31-7.484,22.776-6.481,7.84.928,14.626,4.431,20.867,9.011,4.387,3.218,8.536,6.76,12.791,10.158Z" transform="translate(-2446.381 -2529.055)" fill="#fff6f5"/>
      <path id="Path_237" data-name="Path 237" d="M2538.245,2784.634c9.447-7.795,19.764-10.407,31.438-6.754,9.689,3.031,17.749,8.837,26.015,15.017-8.27,3.016-16.326,5.476-24.83,6.243a37.577,37.577,0,0,1-18.574-2.542A32.782,32.782,0,0,1,2538.245,2784.634Z" transform="translate(-2499.488 -2510.467)" fill="#fff6f5"/>
      <path id="Path_238" data-name="Path 238" d="M2728.675,2341.3c10.678,6.913,21.217,14,27.141,25.915,3.853,7.748,3.948,15.764,1.371,24.13-8.651-1.922-15.869-5.781-20.894-13.154-4.519-6.629-6.337-14.176-7.192-21.985-.532-4.865-.706-9.769-1.041-14.655Z" transform="translate(-2609.22 -2259.023)" fill="#fff6f5"/>
      <path id="Path_239" data-name="Path 239" d="M2829.241,2497.3c-5.906,11.89-11.8,23.322-23.166,30.573-7.223,4.606-15.117,5.587-23.63,3.959.946-8.9,4-16.569,10.9-22.378,7.232-6.094,15.974-8.614,25-10.382C2821.836,2498.384,2825.372,2497.918,2829.241,2497.3Z" transform="translate(-2640.659 -2349.201)" fill="#fff6f5"/>
      <path id="Path_240" data-name="Path 240" d="M2595.3,2636.371c1.278,7.813,2.176,15.1,1.816,22.489a45.133,45.133,0,0,1-3.267,15.6c-3.292,7.771-9.025,13.095-16.572,16.613a3.706,3.706,0,0,1-.779.136c-4.157-7.578-6-15.509-3.812-24.086,2.292-8.963,7.816-15.939,14.049-22.432C2589.387,2641.932,2592.221,2639.354,2595.3,2636.371Z" transform="translate(-2518.863 -2429.6)" fill="#fff6f5"/>
      <path id="Path_242" data-name="Path 242" d="M2807.8,2583.306c-7.314,11.164-14.532,21.777-26.691,27.6-7.672,3.671-15.575,3.624-23.82,1.112a34.454,34.454,0,0,1,7.546-15.81c4.905-5.621,11.3-8.661,18.379-10.455C2791.1,2583.749,2799.161,2583.427,2807.8,2583.306Z" transform="translate(-2626.118 -2398.924)" fill="#fff6f5"/>
      <path id="Path_243" data-name="Path 243" d="M2675.365,2245.217c11.425,3.56,22.245,7.287,30.944,15.273,7.4,6.8,10.591,15.338,10.324,25.492-2.28,0-4.508.18-6.7-.031-9.6-.924-17.1-5.513-22.72-13.289C2681.314,2264.5,2678.311,2255.1,2675.365,2245.217Z" transform="translate(-2578.757 -2203.474)" fill="#fff6f5"/>
      <path id="Path_246" data-name="Path 246" d="M2751.53,2667.168a101.147,101.147,0,0,1-17.441,15.52,40.922,40.922,0,0,1-15.957,6.81c-7.491,1.286-14.494-.211-21.413-3.947.859-1.667,1.61-3.3,2.51-4.843,5.588-9.593,14.15-14.524,25-15.77,8.97-1.03,17.788.325,26.589,1.837A3.169,3.169,0,0,1,2751.53,2667.168Z" transform="translate(-2591.102 -2445.907)" fill="#fff6f5"/>
      <path id="Path_247" data-name="Path 247" d="M2836.439,2388.383c-.764,11.458-1.832,22.854-7.541,33.2-4.656,8.437-11.841,13.532-21.125,15.8a12.944,12.944,0,0,1-1.423.171c-2.508-8.336-2.582-16.464,1.374-24.386a41.985,41.985,0,0,1,13.244-15.065c4.862-3.551,9.97-6.766,14.97-10.129Z" transform="translate(-2653.461 -2285.997)" fill="#fff6f5"/>
      <path id="Path_255" data-name="Path 255" d="M2657.219,2582.892c5.2,10.109,10.021,20.25,10.582,31.8.487,10.028-3.134,18.4-10.353,25.284a6.443,6.443,0,0,1-.775.529c-8.467-7.743-12.65-17.083-11.159-28.616,1.353-10.472,6.152-19.627,11.162-28.688C2656.75,2583.074,2656.977,2583.028,2657.219,2582.892Z" transform="translate(-2561.329 -2398.684)" fill="#fff6f5"/>
      <path id="Path_256" data-name="Path 256" d="M2622.229,2744.539c6.6-9.665,15.433-15.058,27.2-15.127,7.833-.046,15.278,1.973,22.609,4.491,2.453.843,4.876,1.773,7.558,2.753-.541.46-.906.822-1.319,1.115-8.1,5.75-16.461,11.021-26.232,13.545a31.842,31.842,0,0,1-28.139-5.389C2623.357,2745.52,2622.849,2745.054,2622.229,2744.539Z" transform="translate(-2548.039 -2483.387)" fill="#fff6f5"/>
      <path id="Path_258" data-name="Path 258" d="M2658.807,2146.277c11.07,4.8,21.4,9.673,29.2,18.533,6.533,7.424,8.792,16.126,7.613,25.83a3.911,3.911,0,0,1-.295.746c-8.683-.528-16.447-3.186-22.569-9.695-6.382-6.784-9.328-15.244-11.525-24.031C2660.336,2154.07,2659.681,2150.418,2658.807,2146.277Z" transform="translate(-2569.184 -2146.277)" fill="#fff6f5"/>
      <path id="Path_259" data-name="Path 259" d="M2705.824,2523.6c7.454,9.561,14.252,18.843,16.783,30.447,2.135,9.792-.13,18.615-6.193,26.751-8.508-5.293-14.326-12.345-15.961-22.4-1.291-7.933-.041-15.673,1.976-23.323C2703.406,2531.377,2704.6,2527.728,2705.824,2523.6Z" transform="translate(-2592.956 -2364.409)" fill="#fff6f5"/>
      <path id="Path_260" data-name="Path 260" d="M2768.968,2227.318c-8.7-7.589-13.082-16.78-11.924-28.266,1.079-10.712,5.821-20.093,11.019-30.066,2.494,5.246,4.914,9.9,6.951,14.721a50.059,50.059,0,0,1,4.438,20.865C2779.23,2213.608,2775.432,2220.921,2768.968,2227.318Z" transform="translate(-2625.869 -2159.405)" fill="#fff6f5"/>
      <path id="Path_263" data-name="Path 263" d="M2503.155,2704.991c-5.076,12.273-10.179,23.9-20.852,31.864-6.882,5.136-14.7,6.633-23.461,5.649.128-1.6.179-3.111.379-4.6,1.534-11.4,7.708-19.491,17.787-24.768C2485.056,2708.92,2493.765,2706.861,2503.155,2704.991Z" transform="translate(-2453.585 -2469.27)" fill="#fff6f5"/>
      <path id="Path_265" data-name="Path 265" d="M2729.2,2430.985c9.208,9.5,18.3,19.115,21,32.8,1.567,7.932-.231,15.3-4.34,22.424-7.92-3.789-14.062-9.088-17.354-17.311-2.766-6.909-3.055-14.12-2.345-21.367.539-5.5,1.572-10.945,2.385-16.415Z" transform="translate(-2607.93 -2310.867)" fill="#fff6f5"/>
    </g>
    <g id="Group_109" data-name="Group 109" transform="translate(1203 4696)">
      <path id="Path_235-2" data-name="Path 235" d="M2811.394,2331.239c6.073-8.131,8.953-16.888,6.734-26.931-2.006-9.083-7-16.612-12.51-23.856-1.558-2.046-3.206-4.023-5.048-6.328-3.715,12.619-7.13,24.847-3.91,37.747C2798.777,2320.348,2803.975,2326.537,2811.394,2331.239Z" transform="translate(-2777.533 -2220.185)" fill="#fff6f5"/>
      <path id="Path_236-2" data-name="Path 236" d="M2446.532,2828.671c6.408,1.115,12.794,2.391,19.233,3.3a42.992,42.992,0,0,0,17.552-1.174c8.7-2.4,14.894-7.861,19.5-15.7-6.915-4.753-14.31-7.484-22.776-6.481-7.84.928-14.626,4.431-20.867,9.011-4.387,3.218-8.536,6.76-12.791,10.158Z" transform="translate(-2314.233 -2529.055)" fill="#fff6f5"/>
      <path id="Path_237-2" data-name="Path 237" d="M2595.7,2784.634c-9.447-7.795-19.764-10.407-31.438-6.754-9.689,3.031-17.749,8.837-26.015,15.017,8.27,3.016,16.326,5.476,24.83,6.243a37.577,37.577,0,0,0,18.574-2.542A32.785,32.785,0,0,0,2595.7,2784.634Z" transform="translate(-2445.875 -2510.467)" fill="#fff6f5"/>
      <path id="Path_238-2" data-name="Path 238" d="M2758.329,2341.3c-10.678,6.913-21.216,14-27.141,25.915-3.853,7.748-3.947,15.764-1.371,24.13,8.651-1.922,15.869-5.781,20.894-13.154,4.519-6.629,6.337-14.176,7.192-21.985.532-4.865.706-9.769,1.041-14.655Z" transform="translate(-2689.203 -2259.023)" fill="#fff6f5"/>
      <path id="Path_239-2" data-name="Path 239" d="M2782.445,2497.3c5.906,11.89,11.8,23.322,23.167,30.573,7.223,4.606,15.117,5.587,23.63,3.959-.946-8.9-4-16.569-10.9-22.378-7.232-6.094-15.974-8.614-25-10.382C2789.85,2498.384,2786.313,2497.918,2782.445,2497.3Z" transform="translate(-2782.445 -2349.201)" fill="#fff6f5"/>
      <path id="Path_240-2" data-name="Path 240" d="M2573.656,2636.371c-1.277,7.813-2.176,15.1-1.816,22.489a45.127,45.127,0,0,0,3.267,15.6c3.292,7.771,9.025,13.095,16.572,16.613a3.71,3.71,0,0,0,.779.136c4.156-7.578,6-15.509,3.812-24.086-2.292-8.963-7.816-15.939-14.049-22.432C2579.573,2641.932,2576.74,2639.354,2573.656,2636.371Z" transform="translate(-2461.516 -2429.6)" fill="#fff6f5"/>
      <path id="Path_242-2" data-name="Path 242" d="M2757.29,2583.306c7.314,11.164,14.532,21.777,26.691,27.6,7.671,3.671,15.575,3.624,23.82,1.112a34.459,34.459,0,0,0-7.547-15.81c-4.905-5.621-11.3-8.661-18.379-10.455C2773.988,2583.749,2765.929,2583.427,2757.29,2583.306Z" transform="translate(-2750.391 -2398.924)" fill="#fff6f5"/>
      <path id="Path_243-2" data-name="Path 243" d="M2716.648,2245.217c-11.425,3.56-22.245,7.287-30.944,15.273-7.4,6.8-10.591,15.338-10.323,25.492,2.28,0,4.508.18,6.7-.031,9.6-.924,17.1-5.513,22.72-13.289C2710.7,2264.5,2713.7,2255.1,2716.648,2245.217Z" transform="translate(-2624.675 -2203.474)" fill="#fff6f5"/>
      <path id="Path_246-2" data-name="Path 246" d="M2696.719,2667.168a101.135,101.135,0,0,0,17.441,15.52,40.924,40.924,0,0,0,15.957,6.81c7.491,1.286,14.494-.211,21.413-3.947-.859-1.667-1.61-3.3-2.51-4.843-5.588-9.593-14.15-14.524-25-15.77-8.97-1.03-17.789.325-26.589,1.837A3.164,3.164,0,0,0,2696.719,2667.168Z" transform="translate(-2668.566 -2445.907)" fill="#fff6f5"/>
      <path id="Path_247-2" data-name="Path 247" d="M2804.59,2388.383c.764,11.458,1.832,22.854,7.541,33.2,4.657,8.437,11.841,13.532,21.125,15.8a12.974,12.974,0,0,0,1.423.171c2.508-8.336,2.582-16.464-1.374-24.386a41.98,41.98,0,0,0-13.244-15.065c-4.862-3.551-9.971-6.766-14.97-10.129Z" transform="translate(-2798.986 -2285.997)" fill="#fff6f5"/>
      <path id="Path_255-2" data-name="Path 255" d="M2655.844,2582.892c-5.2,10.109-10.021,20.25-10.582,31.8-.487,10.028,3.133,18.4,10.353,25.284a6.384,6.384,0,0,0,.775.529c8.466-7.743,12.65-17.083,11.159-28.616-1.354-10.472-6.153-19.627-11.163-28.688C2656.313,2583.074,2656.086,2583.028,2655.844,2582.892Z" transform="translate(-2563.153 -2398.684)" fill="#fff6f5"/>
      <path id="Path_256-2" data-name="Path 256" d="M2679.6,2744.539c-6.6-9.665-15.433-15.058-27.2-15.127-7.833-.046-15.277,1.973-22.608,4.491-2.454.843-4.876,1.773-7.558,2.753.541.46.906.822,1.319,1.115,8.1,5.75,16.46,11.021,26.231,13.545a31.842,31.842,0,0,0,28.139-5.389C2678.471,2745.52,2678.979,2745.054,2679.6,2744.539Z" transform="translate(-2565.208 -2483.387)" fill="#fff6f5"/>
      <path id="Path_258-2" data-name="Path 258" d="M2695.92,2146.277c-11.07,4.8-21.4,9.673-29.2,18.533-6.533,7.424-8.792,16.126-7.613,25.83a3.935,3.935,0,0,0,.294.746c8.684-.528,16.447-3.186,22.569-9.695,6.382-6.784,9.328-15.244,11.525-24.031C2694.392,2154.07,2695.046,2150.418,2695.92,2146.277Z" transform="translate(-2596.962 -2146.277)" fill="#fff6f5"/>
      <path id="Path_259-2" data-name="Path 259" d="M2717.5,2523.6c-7.455,9.561-14.253,18.843-16.784,30.447-2.135,9.792.13,18.615,6.193,26.751,8.508-5.293,14.326-12.345,15.961-22.4,1.29-7.933.041-15.673-1.976-23.323C2719.915,2531.377,2718.725,2527.728,2717.5,2523.6Z" transform="translate(-2641.783 -2364.409)" fill="#fff6f5"/>
      <path id="Path_260-2" data-name="Path 260" d="M2767.356,2227.318c8.7-7.589,13.082-16.78,11.924-28.266-1.079-10.712-5.821-20.093-11.018-30.066-2.494,5.246-4.914,9.9-6.951,14.721a50.051,50.051,0,0,0-4.438,20.865C2757.093,2213.608,2760.892,2220.921,2767.356,2227.318Z" transform="translate(-2721.873 -2159.405)" fill="#fff6f5"/>
      <path id="Path_263-2" data-name="Path 263" d="M2458.842,2704.991c5.076,12.273,10.179,23.9,20.853,31.864,6.882,5.136,14.7,6.633,23.461,5.649-.128-1.6-.179-3.111-.38-4.6-1.534-11.4-7.708-19.491-17.787-24.768C2476.941,2708.92,2468.233,2706.861,2458.842,2704.991Z" transform="translate(-2319.831 -2469.27)" fill="#fff6f5"/>
      <path id="Path_265-2" data-name="Path 265" d="M2747.394,2430.985c-9.208,9.5-18.3,19.115-21,32.8-1.567,7.932.231,15.3,4.34,22.424,7.92-3.789,14.063-9.088,17.355-17.311,2.766-6.909,3.054-14.12,2.345-21.367-.538-5.5-1.572-10.945-2.385-16.415Z" transform="translate(-2680.078 -2310.867)" fill="#fff6f5"/>
    </g>
  </g>
</svg>
