<svg xmlns="http://www.w3.org/2000/svg" width="10.419" height="13" viewBox="0 0 10.419 13">
  <path id="c_filter-type" d="M1843,192.038c.022-.134.035-.271.067-.4a2.153,2.153,0,0,1,1.845-1.648,2.189,2.189,0,0,1,1.253.224c.062.03.122.063.185.089a.431.431,0,0,0,.53-.142c.111-.161.2-.338.3-.508a.124.124,0,0,0-.012-.136q-1.088-1.837-2.173-3.676c-.223-.378-.441-.76-.666-1.137a3.2,3.2,0,0,1-.441-1.575,3.381,3.381,0,0,1,.391-1.722l.055-.1,3.867,6.569h.026l1.93-3.277,1.935-3.286a.651.651,0,0,1,.039.056,3.435,3.435,0,0,1,.411,1.915,3.372,3.372,0,0,1-.485,1.489q-1.352,2.285-2.694,4.575a1.8,1.8,0,0,1-.094.16.143.143,0,0,0-.006.172c.086.149.163.3.258.446a.439.439,0,0,0,.6.158,3.256,3.256,0,0,1,.6-.24,2.166,2.166,0,0,1,2.67,1.721c.015.091.026.183.038.274v.2c-.005.041-.011.083-.015.124a2.168,2.168,0,0,1-1.593,1.863c-.133.035-.271.054-.407.081h-.3a.419.419,0,0,0-.05-.012,2.229,2.229,0,0,1-1.161-.472,2.33,2.33,0,0,1-.55-.656q-.522-.872-1.05-1.74c-.022-.037-.048-.072-.077-.114-.019.025-.032.041-.044.059-.061.095-.122.189-.18.285-.335.553-.666,1.108-1.006,1.658a2.048,2.048,0,0,1-1.26.913c-.131.035-.267.052-.4.078h-.3l-.233-.039a2.163,2.163,0,0,1-1.714-1.632c-.03-.135-.045-.273-.068-.41Z" transform="translate(-1843 -181.305)" fill="#ef806c"/>
</svg>
