<svg xmlns="http://www.w3.org/2000/svg" width="12.318" height="12" viewBox="0 0 12.318 12">
  <path id="c_filter-color" d="M2107.455,1456.543c-.381-.457-.955-1.121-1.581-1.837-1.088,1.589-4.529,3.92-3.144,2.164a14.483,14.483,0,0,0,2-3.459l-.561-.634a2.413,2.413,0,0,0-3.612,0c-1.153,1.3-2.562,2.9-3.281,3.766a4.549,4.549,0,0,0-.878,4.2,2.98,2.98,0,0,0,4.367.759,2.3,2.3,0,0,1-2.336,1.6,7.732,7.732,0,0,0,3.015.845c.535.026.919.013.919.013s.385.013.92-.013C2109.116,1463.4,2109.381,1458.857,2107.455,1456.543Z" transform="translate(-2096.21 -1451.965)" fill="#ef806c"/>
</svg>
