<svg xmlns="http://www.w3.org/2000/svg" width="9.271" height="13" viewBox="0 0 9.271 13">
  <path id="c_filter-team" d="M1051-906.165l2.954-1.818v-.362a2.132,2.132,0,0,1-1.386-.864,5.169,5.169,0,0,1-.867-2.416,6.793,6.793,0,0,1,.1-2.449,3.163,3.163,0,0,1,.765-1.543,1.665,1.665,0,0,1,.948-.511.979.979,0,0,0,.474-.246,2.407,2.407,0,0,1,1.767-.626,3.724,3.724,0,0,1,1.9.561,6.637,6.637,0,0,1,1.195,1.237,5.689,5.689,0,0,1,.562,4.21,4.366,4.366,0,0,1-.812,1.8,2.289,2.289,0,0,1-1.271.819v.385s1.193.809,2.941,1.818a6.473,6.473,0,0,1-4.589,2.165A6.965,6.965,0,0,1,1051-906.165Z" transform="translate(-1051 917)" fill="#ef806c"/>
</svg>
