<svg xmlns="http://www.w3.org/2000/svg" width="38.429" height="30" viewBox="0 0 38.429 30">
  <g id="Group_276" data-name="Group 276" transform="translate(-279.336 230.003)">
    <path id="Path_382" data-name="Path 382" d="M314.556-219.345c-1.936-.965-3.845-1.981-5.767-2.976q-7.232-3.743-14.465-7.483a1.708,1.708,0,0,0-2.3.667c-.448.846-.81,1.736-1.217,2.624l23.627,12.225c.15-.33.279-.622.414-.912.251-.532.5-1.063.757-1.593l.192-.7A2,2,0,0,0,314.556-219.345Z" transform="translate(1.969 0)" fill="#5f5c5c"/>
    <path id="Path_383" data-name="Path 383" d="M306.79-215.72c-.444-.224-.711-.457-.606-.988a3.1,3.1,0,0,0,0-.6,1.8,1.8,0,0,0-1.979-1.977c-1.343,0-2.684.007-4.027,0a.911.911,0,0,1-.4-.087q-3.392-1.747-6.779-3.508c-.726-.376-1.454-.749-2.2-1.131-.053.09-.095.157-.131.226-.743,1.432-1.489,2.861-2.221,4.3a.374.374,0,0,1-.393.236q-3.38,0-6.76.011a1.8,1.8,0,0,0-1.96,1.97c.008,4.767.027,9.535.023,14.3a1.8,1.8,0,0,0,1.941,1.931q11.492-.011,22.984-.045a1.8,1.8,0,0,0,1.926-1.943c0-.771,0-1.541,0-2.376.771.4,1.481.765,2.19,1.135a1.778,1.778,0,0,0,2.539-.81c.648-1.255,1.3-2.506,1.951-3.761.506-.978,1.008-1.957,1.517-2.947-.1-.06-.18-.115-.268-.16C311.691-213.2,309.248-214.477,306.79-215.72Zm-26.016-1.126c0-.963-.059-.95.954-.951q11.239-.016,22.477-.043c.455,0,.546.09.546.542q0,1.172,0,2.344c0,.1-.006.2-.009.326l-23.958.053C280.779-215.349,280.775-216.1,280.774-216.846Zm23.449,14.331-15.114.032-7.753.013c-.472,0-.552-.078-.553-.562q-.009-4.056-.014-8.112c0-.059,0-.117.006-.217l23.94-.052c.008.093.022.169.022.245q.011,4.058.015,8.114C304.773-202.6,304.684-202.516,304.223-202.515Zm7.5-7.891c-.31.6-.655,1.27-1,1.937-.074.143-.144.287-.22.428a.74.74,0,0,1-1.042.354q-1.2-.6-2.371-1.229a.729.729,0,0,1-.3-1.01q.591-1.165,1.2-2.32a.75.75,0,0,1,1.093-.329c.747.384,1.495.767,2.24,1.156A.771.771,0,0,1,311.726-210.406Z" transform="translate(0 1.029)" fill="#5f5c5c"/>
    <path id="Path_384" data-name="Path 384" d="M285.023-210.425q-1.276,0-2.552.012a.706.706,0,0,0-.785.753c-.012.89-.006,1.781.006,2.671a.694.694,0,0,0,.722.728c.91.011,1.821,0,2.731-.008a.712.712,0,0,0,.688-.6c0-.035.007-.124.007-.214,0-.84,0-1.68,0-2.521A.735.735,0,0,0,285.023-210.425Z" transform="translate(0.402 3.36)" fill="#5f5c5c"/>
  </g>
</svg>
