<svg xmlns="http://www.w3.org/2000/svg" width="222" height="50.542" viewBox="0 0 222 50.542">
  <g id="colbaandroid" transform="translate(-5064 -5889)">
    <rect id="Rectangle_444" data-name="Rectangle 444" width="222" height="50.542" rx="2" transform="translate(5064 5889)" fill="#fff"/>
    <text id="Скачайте_приложение_Colba_в_Google_Play" data-name="Скачайте приложение Colba
в Google Play" transform="translate(5116 5908)" fill="#5f5c5c" font-size="11" font-family="SegoeUI, Segoe UI" letter-spacing="0.02em"><tspan x="0" y="0">Скачайте приложение Colba</tspan><tspan font-size="16"><tspan x="0" y="19">в Google Play</tspan></tspan></text>
    <g id="Group_375" data-name="Group 375" transform="translate(4418.489 5616.148)">
      <path id="Path_2053" data-name="Path 2053" d="M673.614,280.957a.759.759,0,0,1,.473.327.7.7,0,0,1-.047.8l-1.315,1.947c-.047.064-.123.14-.117.2s.123.082.187.117a9.338,9.338,0,0,1,3.1,2.77,7.957,7.957,0,0,1,1.251,2.788h-19.02a7.836,7.836,0,0,1,.677-1.841,9.025,9.025,0,0,1,3.764-3.764c.088-.047.117-.076.047-.169-.467-.684-.923-1.368-1.385-2.046a.706.706,0,0,1-.047-.8.758.758,0,0,1,.473-.327h.21a.963.963,0,0,1,.6.485c.473.719.959,1.426,1.437,2.145a.111.111,0,0,0,.158.047,10.563,10.563,0,0,1,3.191-.6,10.748,10.748,0,0,1,3.963.6c.076.029.111.018.152-.047.508-.76,1.023-1.514,1.531-2.274a.8.8,0,0,1,.339-.3c.041-.023.093-.012.123-.058Zm-8.732,6.534a1.035,1.035,0,0,0-2.07.012,1.035,1.035,0,0,0,2.07-.012Zm7.569.006a1.032,1.032,0,1,0-1.029,1.035A1.04,1.04,0,0,0,672.45,287.5Z" transform="translate(3.532 0)" fill="#5f5c5c"/>
      <path id="Path_2054" data-name="Path 2054" d="M667.745,282.724h9.521c.094,0,.117.023.117.117V297.8a2.088,2.088,0,0,1-2.134,2.134H665.1c-1.625,0-3.255.006-4.88-.006a2.065,2.065,0,0,1-2.111-2.128v-10.38q0-2.3-.005-4.594c0-.087.023-.105.111-.105Z" transform="translate(3.421 8.561)" fill="#5f5c5c"/>
      <path id="Path_2055" data-name="Path 2055" d="M661.636,289.6V282.97c0-.088.017-.129.111-.158a2.061,2.061,0,0,1,2.624,1.7,2.872,2.872,0,0,1,.023.321q0,4.77-.006,9.551a2,2,0,0,1-1.216,1.923,1.935,1.935,0,0,1-1.479.082c-.047-.018-.064-.041-.058-.088v-6.7Z" transform="translate(20.542 8.561)" fill="#5f5c5c"/>
      <path id="Path_2056" data-name="Path 2056" d="M660.148,289.618c0,2.209,0,4.425.005,6.634a.139.139,0,0,1-.117.158,2.058,2.058,0,0,1-2.619-1.7,2.2,2.2,0,0,1-.023-.333v-9.527a2.018,2.018,0,0,1,1.221-1.935,1.906,1.906,0,0,1,1.467-.082.078.078,0,0,1,.065.1v6.687Z" transform="translate(0 8.559)" fill="#5f5c5c"/>
      <path id="Path_2057" data-name="Path 2057" d="M661.326,285.9h2.653c.076,0,.106.012.106.1-.006.877,0,1.753-.006,2.63a2.754,2.754,0,0,1-5.085,1.491,2.822,2.822,0,0,1-.421-1.5V286c0-.082.018-.1.1-.1Z" transform="translate(5.707 23.968)" fill="#5f5c5c"/>
      <path id="Path_2058" data-name="Path 2058" d="M662.739,285.9h2.66c.076,0,.1.012.1.1-.006.877,0,1.753,0,2.63a2.754,2.754,0,0,1-5.085,1.491,2.884,2.884,0,0,1-.427-1.5c0-.877.006-1.753,0-2.624,0-.082.023-.1.1-.1Z" transform="translate(12.553 23.968)" fill="#5f5c5c"/>
    </g>
  </g>
</svg>
