<svg xmlns="http://www.w3.org/2000/svg" width="222" height="50.542" viewBox="0 0 222 50.542">
  <g id="colbaios" transform="translate(-5064 -5403.058)">
    <rect id="Rectangle_431" data-name="Rectangle 431" width="222" height="50.542" rx="2" transform="translate(5064 5403.058)" fill="#5f5c5c"/>
    <g id="Group_340" data-name="Group 340" transform="translate(5076.53 5410.955)">
      <path id="Path_2022" data-name="Path 2022" d="M167.929,275.064h-.773c-.245-.074-.495-.134-.733-.224a5.419,5.419,0,0,1-2.1-1.539,19.711,19.711,0,0,1-3.595-5.558,18.121,18.121,0,0,1-1.545-7.306,10.267,10.267,0,0,1,1.327-5.184,7.808,7.808,0,0,1,5.168-3.8,5.446,5.446,0,0,1,2.753-.029c.911.262,1.809.572,2.7.888a3.09,3.09,0,0,0,2.348.127c.535-.226,1.09-.4,1.638-.6a9,9,0,0,1,2.768-.647A8.1,8.1,0,0,1,183,252.675a6.5,6.5,0,0,1,1.59,1.635c-.06.044-.105.08-.155.113a8.193,8.193,0,0,0-1.734,1.557,6.772,6.772,0,0,0,.378,9.084,7.5,7.5,0,0,0,2.138,1.505c.162.077.241.15.158.341-.139.323-.246.66-.378.985a17.853,17.853,0,0,1-2.231,3.889,11.213,11.213,0,0,1-2.158,2.379,3.9,3.9,0,0,1-2.7.839,6.333,6.333,0,0,1-2.192-.6,6.458,6.458,0,0,0-4.686-.334c-.4.122-.778.314-1.177.44C169.211,274.706,168.568,274.879,167.929,275.064Z" transform="translate(-159.183 -243.584)" fill="#fff"/>
      <path id="Path_2023" data-name="Path 2023" d="M177.551,244.081a10.135,10.135,0,0,1-.023,1.5,6.875,6.875,0,0,1-2.624,4.467,5.42,5.42,0,0,1-3.769,1.273,4.321,4.321,0,0,1,.056-1.62,7.268,7.268,0,0,1,5.958-5.571.9.9,0,0,0,.145-.045Z" transform="translate(-158.029 -244.081)" fill="#fff"/>
    </g>
    <text id="Скачайте_приложение_Colba_в_App_Store" data-name="Скачайте приложение Colba
в App Store" transform="translate(5116 5422)" fill="#fff" font-size="11" font-family="SegoeUI, Segoe UI" letter-spacing="0.02em"><tspan x="0" y="0">Скачайте приложение Colba</tspan><tspan font-size="16"><tspan x="0" y="19">в App Store</tspan></tspan></text>
  </g>
</svg>
