<?xml version="1.0" encoding="utf-8"?>
<!-- Generator: Adobe Illustrator 23.0.2, SVG Export Plug-In . SVG Version: 6.00 Build 0)  -->
<svg version="1.1" xmlns="http://www.w3.org/2000/svg" xmlns:xlink="http://www.w3.org/1999/xlink" x="0px" y="0px"
	 viewBox="0 0 197.359 140.296" style="enable-background:new 0 0 197.359 140.296;" xml:space="preserve">
<style type="text/css">
	.st0{clip-path:url(#SVGID_2_);}
	.st1{fill:#DFDEDF;}
	.st2{fill:#FFFFFF;}
	.st3{fill-rule:evenodd;clip-rule:evenodd;fill:#62CBC9;}
	.st4{fill-rule:evenodd;clip-rule:evenodd;fill:#7BA0C4;}
	.st5{fill-rule:evenodd;clip-rule:evenodd;fill:#FF8672;}
	.st6{fill:none;}
	.st7{fill:#1C1F2A;}
	.st8{fill:none;stroke:#2F2D44;stroke-width:3;stroke-miterlimit:10;}
	.st9{fill:#2F2D44;}
	.st10{fill:none;stroke:#1C1F2A;stroke-miterlimit:10;}
	.st11{fill:none;stroke:#2F2D44;stroke-miterlimit:10;}
	.st12{fill:#1A1A1A;}
	.st13{fill:#333333;}
	.st14{fill:#4D4D4D;}
	.st15{fill:#666666;}
	.st16{fill:#808080;}
	.st17{opacity:0.8;fill:#808080;}
	.st18{fill:#B3B3B3;}
	.st19{fill:#CCCCCC;}
	.st20{fill:#E6E6E6;}
	.st21{fill:#FF8672;}
	.st22{fill:#26242B;}
	.st23{fill:#F08374;}
	.st24{fill:#CD8C69;}
	.st25{fill:#B7CCC6;}
	.st26{fill:#779EBF;}
	.st27{fill:#9695A2;}
	.st28{fill:#5BBFC2;}
	.st29{opacity:0.5;}
	.st30{opacity:0.5;fill:none;stroke:#2F2D44;stroke-width:3;stroke-miterlimit:10;}
	.st31{fill:#62CBC9;}
	.st32{fill:#7BA0C4;}
	.st33{fill:#898A8D;}
	.st34{fill:#C68B66;}
	.st35{fill:#ADC9B8;}
	.st36{fill:#2D292A;}
	.st37{fill:#F0806C;}
	.st38{fill:#C28562;}
	.st39{fill:#EFF7F6;}
	.st40{fill:#7A92C3;}
	.st41{fill:#AA9D8D;}
	.st42{fill:#65BFB0;}
	.st43{fill:none;stroke:#2F2D44;stroke-width:2;stroke-miterlimit:10;}
	.st44{fill:none;stroke:#2F2D44;stroke-linecap:round;stroke-linejoin:round;}
	.st45{fill:none;stroke:#2F2D44;stroke-linecap:round;stroke-linejoin:round;stroke-dasharray:0,5.0244;}
</style>
<g id="Guides_For_Artboard">
</g>
<g id="Layer_1">
	<g>
		<path class="st36" d="M141.149,78.749c-0.81-1.409-9.65-16.761-9.65-16.761c1.58-5.853,2.86-18.611-5.352-30.598
			c-8.212-11.987-20.617-14.927-20.617-14.927s0-10.326,0-11.223s0.245-1.868,2.103-1.868c1.857,0,1.826-1.281,1.826-1.751
			c0-0.297,0.052-1.623-1.692-1.623C106.021,0,81.6,0,80.051,0c-1.547,0-1.829,0.619-1.829,1.75c0,1.313,0.837,1.598,1.766,1.598
			c0.928,0,1.962,0.324,1.962,1.842c0,1.518,0,12.116,0,12.116c-5.869,2.248-12.634,6.26-18.096,14.348
			c-5.064,7.497-6.296,15.31-6.296,20.867c0,5.557,1.307,9.732,1.307,9.732s-8.806,16.032-9.284,16.963
			c-0.546,1.064,0.202,1.989,1.459,1.989c2.176,0,59.663,0,59.663,0c-7.305,3.949-14.152,3.86-15.985,3.86
			c-1.832,0-3.971-0.234-5.49-0.554c-1.269-0.268-2.111-0.478-3.456-0.478c-1.345,0-4.135,0-4.135,0s-2.423,0-3.399,0
			c-0.935,0-1.568,1.084-0.484,1.855c2.947,2.097,10.517,4.313,17.364,4.313c14.457,0,24.469-8.998,24.469-8.998s18.721,0,20.216,0
			C141.297,81.203,141.959,80.159,141.149,78.749z M57.274,76.082l3.992-7.215c0,0,1.153,2.668,4.525,7.215H57.274z M72.645,76.082
			c0,0-9.948-8.966-9.948-23.343c0-6.799,2.481-20.557,17.035-28.733c0,0-11.496,19.864-12.488,21.657
			c-0.993,1.793-1.345,3.416-1.43,5.188c-0.085,1.772,0.018,2.531,0.093,3.157c0.201,1.682,1.361,1.905,2.021,0.748
			c0.778-1.364,16.136-28.011,16.646-28.907c1.087-1.911,2.506-3.785,2.506-6.731c0-4.163,0-14.009,0-14.009h13.337
			c0,0-0.016,11.688-0.016,13.161c0,1.473,0.523,2.256,1.761,2.545c14.265,3.33,25.409,15.946,25.409,31.541
			c0,0.608-0.048,1.953-0.096,2.626l-12.856-22.463c-0.688-1.185-2.146-3.683-6.853-5.587c-1.345-0.544-2.097,0.32-1.473,1.457
			c0.624,1.137,19.645,34.311,19.645,34.311s-1.153,3.971-4.192,8.572c-0.685,1.038,0.026,1.792,0.841,1.792c1.003,0,1.772,0,2.38,0
			s1.388,0.053,2.103-1.1c0.715-1.152,2.092-3.501,2.092-3.501l4.323,7.621H72.645z"/>
		<path class="st37" d="M103.767,46.167c0,0-2.837-3.228-7.384-3.228c-6.063,0-10.449,4.686-10.449,10.087
			c0,5.465,4.76,9.902,10.273,9.902c4.771,0,7.551-3.221,7.551-3.221l3.857,3.223c0,0-4.166,5.116-11.745,5.116
			c-8.283,0-15.69-6.31-15.69-15.114c0-7.997,6.511-15.104,15.989-15.104c4.483,0,8.825,2.154,11.468,5.11L103.767,46.167z"/>
		<path class="st36" d="M23.586,118.416l3.87-3.227c0,0-4.209-5.121-11.702-5.121C7.717,110.068,0,115.99,0,125.436
			c0,7.813,6.692,14.859,15.722,14.859c5.86,0,10.087-3.107,11.713-5.115l-3.868-3.244c0,0-2.722,3.234-7.717,3.234
			c-4.995,0-10.097-4.158-10.097-9.988c0-5.83,4.91-10.024,10.257-10.024C20.685,115.157,23.586,118.416,23.586,118.416z"/>
		<path class="st36" d="M50.977,110.068c-9.126,0-15.882,6.941-15.882,14.946c0,9.227,7.685,15.281,15.69,15.281
			c8.229,0,15.689-6.374,15.689-15.245C66.474,116.502,58.95,110.068,50.977,110.068z M50.905,135.523
			c-5.094,0-9.984-4.105-9.984-10.36c0-5.427,4.299-10.133,10.106-10.133c5.073,0,9.861,4.361,9.861,10.158
			C60.888,131.201,56.141,135.523,50.905,135.523z"/>
		<path class="st36" d="M84.471,134.754c-0.939,0-0.961-0.491-0.961-1.036v-23.043h-5.635v29.203h1.323h4.312h11.784v-5.124H84.471z
			"/>
		<path class="st36" d="M142.743,124.514c-0.706-0.175-0.677-0.818-0.134-1.071c1.357-0.633,3.329-2.116,3.329-5.532
			c0-4.05-3.093-7.236-8.552-7.236c-2.242,0-12.12,0-12.12,0v29.203c0,0,8.816,0,14.495,0c5.678,0,8.406-4.708,8.406-8.23
			C148.166,128.542,146.938,125.553,142.743,124.514z M131.55,115.285h4.923c2.674,0,3.97,2.169,3.97,3.57c0,0.168,0,0.16,0,0.345
			c0,1.681-1.305,3.505-3.728,3.505c-1.505,0-4.71,0-5.126,0c-0.417,0-0.689-0.096-0.689-0.745c0-0.648-0.008-5.604-0.008-6.036
			C130.893,115.493,131.109,115.285,131.55,115.285z M142.493,131.404c0,1.861-1.666,3.882-4.611,3.882c-0.316,0-3.808,0-5.104,0
			c-0.563,0-0.982,0-1.121,0c-0.457,0-0.755-0.106-0.755-0.825c0-0.718-0.009-6.205-0.009-6.684c0-0.479,0.237-0.709,0.72-0.709
			h1.121h5.401c2.934,0,4.357,2.227,4.357,3.778C142.493,131.034,142.493,131.2,142.493,131.404z"/>
		<path class="st36" d="M171.699,110.674h-6.027l-11.648,29.203h5.892c0,0,1.483-3.718,1.758-4.408s0.544-0.715,1.056-0.715
			c0.512,0,9.596-0.011,11.645-0.011c0.566,0,1.035-0.011,1.27,0.587c0.333,0.847,1.815,4.547,1.815,4.547h5.888L171.699,110.674z
			 M172.859,130.388h-8.368c-0.534,0-0.662-0.309-0.491-0.758c0.171-0.448,4.018-10.094,4.32-10.822
			c0.216-0.522,0.494-0.523,0.74,0.024c0.303,0.675,4.109,10.254,4.28,10.734C173.51,130.047,173.5,130.399,172.859,130.388z"/>
		<path class="st38" d="M186.125,114.209l0.533,0.233c0,0,0.423-0.917,1.288-2.254c0.773-1.194,1.609-1.817,1.448,0.47
			c-0.176,2.501-1.068,6.262-2.05,9.288h2.476c0,0,0.905-3.074,1.757-5.604c0.852-2.53,1.893-4.587,2.407-4.795
			c-0.082,0.761,0.365,1.928,1.679,1.928c1.314,0,1.696-1.223,1.696-1.696c0-0.873-0.606-1.769-1.733-1.769
			c-0.915,0-2.412,0.28-4.085,4.483c0,0,0.172-1.12,0.13-2.314c-0.045-1.295-0.755-2.113-1.628-2.145
			C189.156,110.002,187.746,110.394,186.125,114.209z"/>
		<rect x="184.612" y="125.128" class="st39" width="12.641" height="2.576"/>
		<path class="st40" d="M107.524,114.209l0.533,0.233c0,0,0.423-0.917,1.288-2.254c0.772-1.194,1.609-1.817,1.448,0.47
			c-0.176,2.501-1.068,6.262-2.051,9.288h2.476c0,0,0.905-3.074,1.757-5.604c0.852-2.53,1.893-4.587,2.407-4.795
			c-0.082,0.761,0.365,1.928,1.679,1.928c1.314,0,1.696-1.223,1.696-1.696c0-0.873-0.606-1.769-1.732-1.769
			c-0.915,0-2.412,0.28-4.085,4.483c0,0,0.172-1.12,0.13-2.314c-0.045-1.295-0.755-2.113-1.628-2.145
			C110.554,110.002,109.145,110.394,107.524,114.209z"/>
		<rect x="95.512" y="125.128" class="st41" width="21.09" height="2.576"/>
		<path class="st42" d="M102.478,110.229c-2.967-0.085-5.695,2.639-6.689,6.151c-1.135,4.013,1.363,6.15,3.689,6.15
			c2.604,0,5.564-2.002,6.534-5.858C107.094,112.371,104.623,110.29,102.478,110.229z M103.267,116.726
			c-1.201,4.147-2.674,5.284-3.666,5.219c-0.993-0.064-2.194-0.848-0.913-5.764c1.281-4.915,2.978-5.331,3.634-5.331
			C103.091,110.851,104.676,111.861,103.267,116.726z"/>
	</g>
</g>
</svg>
