<svg xmlns="http://www.w3.org/2000/svg" width="271.284" height="297.98" viewBox="0 0 271.284 297.98">
  <g id="contfint" transform="translate(129 -1041)">
    <path id="contfint-2" data-name="contfint" d="M223.485,0H74.5L0,129,74.5,258h148.99L297.98,129Z" transform="translate(-129 1338.98) rotate(-90)" fill="#64c1b1"/>
    <path id="Path_292" data-name="Path 292" d="M37.495-31.571c0-9.665-6.68-13.929-14.5-13.929-7.675,0-14.5,4.264-14.5,13.929C8.5-21.764,15.322-17.5,23-17.5,30.815-17.5,37.495-21.764,37.495-31.571Zm41.645,0c0-9.665-6.68-13.929-14.5-13.929-7.675,0-14.5,4.264-14.5,13.929,0,9.807,6.822,14.071,14.5,14.071C72.459-17.5,79.14-21.764,79.14-31.571Zm41.645,0c0-9.665-6.68-13.929-14.5-13.929-7.675,0-14.5,4.264-14.5,13.929,0,9.807,6.822,14.071,14.5,14.071C114.1-17.5,120.784-21.764,120.784-31.571Z" transform="translate(21.5 1221.5)" fill="#fff"/>
  </g>
</svg>
