<svg xmlns="http://www.w3.org/2000/svg" width="258" height="194.245" viewBox="0 0 258 194.245">
  <g id="cooppreim" transform="translate(-1275.366 -156)">
    <g id="Group_136" data-name="Group 136" transform="translate(1275.366 156)">
      <path id="Path_235" data-name="Path 235" d="M2805.635,2310.7c3.889-5.208,5.733-10.815,4.312-17.247-1.284-5.816-4.479-10.638-8.01-15.276-1-1.31-2.053-2.577-3.233-4.053-2.379,8.081-4.566,15.913-2.5,24.173C2797.556,2303.726,2800.884,2307.688,2805.635,2310.7Z" transform="translate(-2783.951 -2239.583)" fill="#f9f4f1"/>
      <path id="Path_236" data-name="Path 236" d="M2446.478,2821.384c4.1.714,8.193,1.531,12.316,2.11a27.522,27.522,0,0,0,11.24-.751c5.569-1.537,9.537-5.034,12.486-10.053-4.428-3.043-9.164-4.792-14.585-4.15-5.021.594-9.365,2.837-13.363,5.77-2.809,2.061-5.466,4.33-8.191,6.506Z" transform="translate(-2361.757 -2629.517)" fill="#f9f4f1"/>
      <path id="Path_237" data-name="Path 237" d="M2575.038,2781.621c-6.05-4.992-12.657-6.665-20.133-4.326-6.2,1.942-11.366,5.66-16.659,9.617a62.772,62.772,0,0,0,15.9,4,24.065,24.065,0,0,0,11.894-1.627A21,21,0,0,0,2575.038,2781.621Z" transform="translate(-2479.094 -2606.05)" fill="#f9f4f1"/>
      <path id="Path_238" data-name="Path 238" d="M2747.444,2341.305c-6.838,4.428-13.586,8.966-17.381,16.6-2.467,4.962-2.527,10.1-.878,15.453,5.541-1.23,10.162-3.7,13.38-8.423,2.894-4.245,4.058-9.078,4.605-14.078.341-3.115.452-6.256.667-9.385Z" transform="translate(-2703.178 -2288.614)" fill="#f9f4f1"/>
      <path id="Path_239" data-name="Path 239" d="M2782.446,2497.3c3.782,7.613,7.553,14.934,14.836,19.577,4.625,2.951,9.681,3.578,15.132,2.536-.606-5.7-2.563-10.61-6.978-14.331-4.631-3.9-10.229-5.517-16.01-6.648C2787.188,2497.993,2784.924,2497.695,2782.446,2497.3Z" transform="translate(-2782.446 -2402.46)" fill="#f9f4f1"/>
      <path id="Path_240" data-name="Path 240" d="M2572.975,2636.372a68.231,68.231,0,0,0-1.163,14.4,28.894,28.894,0,0,0,2.092,9.989,20.264,20.264,0,0,0,10.613,10.638,2.3,2.3,0,0,0,.5.087c2.662-4.852,3.845-9.931,2.44-15.424-1.468-5.74-5-10.207-9-14.366C2576.764,2639.933,2574.95,2638.283,2572.975,2636.372Z" transform="translate(-2501.163 -2503.961)" fill="#f9f4f1"/>
      <path id="Path_242" data-name="Path 242" d="M2757.29,2583.306c4.684,7.15,9.307,13.946,17.093,17.672,4.913,2.351,9.974,2.321,15.254.713a22.073,22.073,0,0,0-4.833-10.126c-3.141-3.6-7.236-5.546-11.77-6.695C2767.983,2583.591,2762.823,2583.384,2757.29,2583.306Z" transform="translate(-2752.873 -2465.232)" fill="#f9f4f1"/>
      <path id="Path_243" data-name="Path 243" d="M2701.8,2245.218c-7.316,2.28-14.246,4.667-19.816,9.781-4.74,4.353-6.782,9.823-6.611,16.324,1.46,0,2.886.115,4.29-.019a19.613,19.613,0,0,0,14.549-8.51C2697.992,2257.565,2699.915,2251.547,2701.8,2245.218Z" transform="translate(-2642.904 -2218.487)" fill="#f9f4f1"/>
      <path id="Path_246" data-name="Path 246" d="M2696.72,2666.237a64.747,64.747,0,0,0,11.169,9.939,26.19,26.19,0,0,0,10.218,4.36,20.664,20.664,0,0,0,13.712-2.528c-.55-1.067-1.031-2.112-1.607-3.1-3.578-6.144-9.062-9.3-16.009-10.1-5.744-.66-11.391.209-17.027,1.177A2.03,2.03,0,0,0,2696.72,2666.237Z" transform="translate(-2678.691 -2524.546)" fill="#f9f4f1"/>
      <path id="Path_247" data-name="Path 247" d="M2804.591,2388.233c.49,7.339,1.173,14.635,4.829,21.259a20.178,20.178,0,0,0,13.529,10.115,8.55,8.55,0,0,0,.91.11c1.606-5.338,1.653-10.543-.879-15.617a26.89,26.89,0,0,0-8.482-9.647c-3.113-2.274-6.385-4.333-9.586-6.487Z" transform="translate(-2801.002 -2322.667)" fill="#f9f4f1"/>
      <path id="Path_255" data-name="Path 255" d="M2652.023,2582.893c-3.332,6.473-6.417,12.967-6.776,20.367a20.141,20.141,0,0,0,6.629,16.191,4.274,4.274,0,0,0,.5.34c5.422-4.959,8.1-10.94,7.146-18.326-.866-6.706-3.939-12.568-7.148-18.371C2652.324,2583.009,2652.178,2582.979,2652.023,2582.893Z" transform="translate(-2592.667 -2464.93)" fill="#f9f4f1"/>
      <path id="Path_256" data-name="Path 256" d="M2658.969,2739.1c-4.229-6.19-9.883-9.643-17.421-9.687a43.724,43.724,0,0,0-14.478,2.875c-1.571.54-3.124,1.135-4.841,1.762.347.3.58.527.845.714,5.189,3.682,10.541,7.058,16.8,8.674a20.392,20.392,0,0,0,18.02-3.451C2658.246,2739.728,2658.571,2739.429,2658.969,2739.1Z" transform="translate(-2585.714 -2571.864)" fill="#f9f4f1"/>
      <path id="Path_258" data-name="Path 258" d="M2682.574,2146.278c-7.088,3.077-13.706,6.194-18.7,11.868a20.215,20.215,0,0,0-4.875,16.541,2.421,2.421,0,0,0,.188.478c5.561-.338,10.531-2.041,14.452-6.209,4.087-4.344,5.973-9.762,7.381-15.389C2681.6,2151.268,2682.015,2148.93,2682.574,2146.278Z" transform="translate(-2619.203 -2146.278)" fill="#f9f4f1"/>
      <path id="Path_259" data-name="Path 259" d="M2711.179,2523.6c-4.773,6.122-9.127,12.066-10.748,19.5-1.367,6.27.083,11.92,3.966,17.13,5.448-3.389,9.175-7.905,10.221-14.341.826-5.081.026-10.037-1.265-14.937C2712.728,2528.582,2711.966,2526.245,2711.179,2523.6Z" transform="translate(-2662.693 -2421.659)" fill="#f9f4f1"/>
      <path id="Path_260" data-name="Path 260" d="M2763.583,2206.341c5.569-4.86,8.377-10.745,7.635-18.1-.69-6.86-3.727-12.867-7.056-19.253-1.6,3.359-3.146,6.341-4.451,9.427a32.077,32.077,0,0,0-2.843,13.363C2757.01,2197.562,2759.443,2202.245,2763.583,2206.341Z" transform="translate(-2734.456 -2162.852)" fill="#f9f4f1"/>
      <path id="Path_263" data-name="Path 263" d="M2458.842,2704.991c3.251,7.86,6.519,15.305,13.354,20.406,4.406,3.289,9.412,4.247,15.024,3.618-.083-1.025-.115-1.993-.243-2.948-.983-7.3-4.936-12.481-11.39-15.861C2470.433,2707.508,2464.856,2706.189,2458.842,2704.991Z" transform="translate(-2369.822 -2554.041)" fill="#f9f4f1"/>
      <path id="Path_265" data-name="Path 265" d="M2739.64,2430.986c-5.9,6.087-11.719,12.241-13.45,21-1,5.079.148,9.8,2.78,14.36,5.071-2.427,9.005-5.821,11.113-11.085a28.669,28.669,0,0,0,1.5-13.683c-.344-3.52-1.006-7.009-1.527-10.512Z" transform="translate(-2696.532 -2354.064)" fill="#f9f4f1"/>
    </g>
    <g id="Group_147" data-name="Group 147" transform="translate(1412.602 156)">
      <path id="Path_235-2" data-name="Path 235" d="M2800.168,2310.7c-3.889-5.207-5.733-10.814-4.313-17.246,1.285-5.816,4.48-10.638,8.012-15.276,1-1.31,2.052-2.577,3.232-4.053,2.379,8.081,4.566,15.913,2.5,24.173C2808.247,2303.726,2804.919,2307.688,2800.168,2310.7Z" transform="translate(-2701.088 -2239.583)" fill="#f9f4f1"/>
      <path id="Path_236-2" data-name="Path 236" d="M2482.424,2821.384c-4.1.713-8.193,1.531-12.317,2.11a27.511,27.511,0,0,1-11.24-.751c-5.569-1.537-9.538-5.034-12.486-10.053,4.428-3.043,9.165-4.792,14.585-4.15,5.02.594,9.365,2.837,13.363,5.77,2.809,2.061,5.467,4.33,8.191,6.505Z" transform="translate(-2446.381 -2629.517)" fill="#f9f4f1"/>
      <path id="Path_237-2" data-name="Path 237" d="M2538.246,2781.621c6.05-4.992,12.656-6.665,20.133-4.326,6.2,1.942,11.366,5.66,16.66,9.617a62.8,62.8,0,0,1-15.9,4,24.066,24.066,0,0,1-11.895-1.627A21,21,0,0,1,2538.246,2781.621Z" transform="translate(-2513.426 -2606.05)" fill="#f9f4f1"/>
      <path id="Path_238-2" data-name="Path 238" d="M2728.454,2341.3c6.837,4.428,13.586,8.966,17.38,16.6,2.467,4.962,2.528,10.1.878,15.453-5.541-1.23-10.161-3.7-13.38-8.424-2.894-4.244-4.059-9.078-4.606-14.078-.341-3.115-.452-6.256-.666-9.385Z" transform="translate(-2651.957 -2288.613)" fill="#f9f4f1"/>
      <path id="Path_239-2" data-name="Path 239" d="M2812.413,2497.3c-3.782,7.613-7.554,14.934-14.835,19.577-4.626,2.951-9.681,3.578-15.132,2.536.605-5.7,2.564-10.61,6.978-14.331,4.631-3.9,10.229-5.517,16.01-6.648C2807.67,2497.993,2809.935,2497.695,2812.413,2497.3Z" transform="translate(-2691.649 -2402.46)" fill="#f9f4f1"/>
      <path id="Path_240-2" data-name="Path 240" d="M2586.838,2636.372a68.167,68.167,0,0,1,1.163,14.4,28.894,28.894,0,0,1-2.092,9.989A20.262,20.262,0,0,1,2575.3,2671.4a2.287,2.287,0,0,1-.5.087c-2.662-4.852-3.845-9.931-2.441-15.424,1.468-5.74,5.006-10.207,9-14.366C2583.049,2639.933,2584.864,2638.283,2586.838,2636.372Z" transform="translate(-2537.886 -2503.961)" fill="#f9f4f1"/>
      <path id="Path_242-2" data-name="Path 242" d="M2789.637,2583.306c-4.684,7.15-9.306,13.946-17.093,17.672-4.913,2.351-9.974,2.321-15.254.713a22.076,22.076,0,0,1,4.833-10.126c3.14-3.6,7.236-5.546,11.769-6.695C2778.944,2583.591,2784.1,2583.384,2789.637,2583.306Z" transform="translate(-2673.29 -2465.232)" fill="#f9f4f1"/>
      <path id="Path_243-2" data-name="Path 243" d="M2675.365,2245.218c7.316,2.28,14.245,4.667,19.815,9.781,4.741,4.353,6.782,9.823,6.611,16.324-1.459,0-2.886.115-4.289-.019a19.615,19.615,0,0,1-14.549-8.51C2679.175,2257.565,2677.251,2251.547,2675.365,2245.218Z" transform="translate(-2613.5 -2218.487)" fill="#f9f4f1"/>
      <path id="Path_246-2" data-name="Path 246" d="M2731.82,2666.237a64.744,64.744,0,0,1-11.169,9.939,26.2,26.2,0,0,1-10.218,4.36,20.666,20.666,0,0,1-13.713-2.528c.55-1.067,1.031-2.112,1.607-3.1,3.578-6.144,9.062-9.3,16.009-10.1,5.745-.66,11.392.209,17.028,1.177A2.03,2.03,0,0,1,2731.82,2666.237Z" transform="translate(-2629.085 -2524.546)" fill="#f9f4f1"/>
      <path id="Path_247-2" data-name="Path 247" d="M2824.987,2388.233c-.49,7.338-1.174,14.635-4.829,21.258a20.181,20.181,0,0,1-13.529,10.115,8.242,8.242,0,0,1-.911.109c-1.605-5.338-1.652-10.543.881-15.616a26.877,26.877,0,0,1,8.481-9.647c3.114-2.274,6.385-4.333,9.586-6.487Z" transform="translate(-2707.811 -2322.667)" fill="#f9f4f1"/>
      <path id="Path_255-2" data-name="Path 255" d="M2652.905,2582.893c3.332,6.473,6.417,12.967,6.776,20.367a20.14,20.14,0,0,1-6.629,16.191,4.268,4.268,0,0,1-.5.34c-5.422-4.959-8.1-10.94-7.146-18.326.867-6.706,3.94-12.568,7.149-18.371C2652.6,2583.009,2652.749,2582.979,2652.905,2582.893Z" transform="translate(-2591.498 -2464.93)" fill="#f9f4f1"/>
      <path id="Path_256-2" data-name="Path 256" d="M2622.229,2739.1c4.229-6.19,9.883-9.643,17.42-9.687a43.728,43.728,0,0,1,14.478,2.875c1.571.54,3.123,1.135,4.841,1.762-.346.3-.581.527-.846.714-5.19,3.682-10.541,7.058-16.8,8.674a20.392,20.392,0,0,1-18.02-3.451C2622.951,2739.728,2622.626,2739.429,2622.229,2739.1Z" transform="translate(-2574.72 -2571.864)" fill="#f9f4f1"/>
      <path id="Path_258-2" data-name="Path 258" d="M2658.807,2146.278c7.089,3.077,13.707,6.194,18.7,11.868a20.213,20.213,0,0,1,4.875,16.541,2.543,2.543,0,0,1-.188.478c-5.561-.338-10.533-2.041-14.453-6.209-4.086-4.344-5.974-9.762-7.38-15.389C2659.786,2151.268,2659.367,2148.93,2658.807,2146.278Z" transform="translate(-2601.415 -2146.278)" fill="#f9f4f1"/>
      <path id="Path_259-2" data-name="Path 259" d="M2703.7,2523.6c4.774,6.122,9.127,12.066,10.748,19.5,1.367,6.27-.083,11.92-3.966,17.13-5.448-3.389-9.174-7.905-10.22-14.341-.827-5.081-.026-10.037,1.265-14.937C2702.155,2528.582,2702.917,2526.245,2703.7,2523.6Z" transform="translate(-2631.426 -2421.66)" fill="#f9f4f1"/>
      <path id="Path_260-2" data-name="Path 260" d="M2764.615,2206.341c-5.569-4.86-8.378-10.745-7.636-18.1.691-6.86,3.727-12.867,7.056-19.253,1.6,3.359,3.146,6.341,4.452,9.427a32.068,32.068,0,0,1,2.841,13.363C2771.187,2197.562,2768.754,2202.245,2764.615,2206.341Z" transform="translate(-2672.977 -2162.852)" fill="#f9f4f1"/>
      <path id="Path_263-2" data-name="Path 263" d="M2487.22,2704.991c-3.251,7.86-6.519,15.305-13.354,20.406-4.407,3.289-9.411,4.247-15.024,3.618.082-1.025.115-1.993.244-2.948.982-7.3,4.936-12.481,11.389-15.861C2475.629,2707.508,2481.206,2706.189,2487.22,2704.991Z" transform="translate(-2455.475 -2554.041)" fill="#f9f4f1"/>
      <path id="Path_265-2" data-name="Path 265" d="M2727.985,2430.985c5.9,6.087,11.719,12.241,13.45,21,1,5.079-.148,9.8-2.779,14.36-5.072-2.427-9.005-5.82-11.114-11.085a28.67,28.67,0,0,1-1.5-13.683c.344-3.52,1.006-7.009,1.527-10.512Z" transform="translate(-2650.33 -2354.064)" fill="#f9f4f1"/>
    </g>
  </g>
</svg>
