<svg xmlns="http://www.w3.org/2000/svg" width="20" height="23.099" viewBox="0 0 20 23.099">
  <g id="cooperative-card-price-right" transform="translate(-1428 -572)">
    <g id="Path_328" data-name="Path 328" transform="translate(1448 572) rotate(90)" fill="none" stroke-miterlimit="10">
      <path d="M5.775,20h11.55L23.1,10,17.324,0H5.775L0,10Z" stroke="none"/>
      <path d="M 16.74710273742676 18.9999828338623 L 21.94442749023438 9.999987602233887 L 16.74709701538086 1.000002384185791 L 6.352073669433594 1.000002384185791 L 1.154763698577881 9.999982833862305 L 6.35207462310791 18.9999828338623 L 16.74710273742676 18.9999828338623 M 17.32438850402832 19.9999828338623 L 5.774787902832031 19.9999828338623 L -2.25982671508973e-06 9.999982833862305 L 5.774787902832031 2.370605443502427e-06 L 17.32438850402832 2.370605443502427e-06 L 23.09919738769531 9.999982833862305 L 17.32438850402832 19.9999828338623 Z" stroke="none" fill="#7a93c4"/>
    </g>
    <path id="Path_345" data-name="Path 345" d="M0-2.982V-2.1H1.372V0H2.408V-2.1h3.6v-.882h-3.6V-4.158H4.27c2.618,0,3.556-1.554,3.556-3.094,0-1.176-.518-3.108-3.556-3.108h-2.9v5.292H0v.91H1.372v1.176Zm2.408-6.44H4.284c1.848,0,2.506,1.078,2.506,2.184,0,1.078-.658,2.17-2.506,2.17H2.408Z" transform="translate(1434 589.36)" fill="#7a93c4"/>
  </g>
</svg>
