<svg xmlns="http://www.w3.org/2000/svg" width="20" height="23.099" viewBox="0 0 20 23.099">
  <g id="cooperative-card-people-right" transform="translate(-924 -812)">
    <path id="Path_337" data-name="Path 337" d="M2589.109,1709.753l1.241.37,1.531-.687-.211,1.135,3.987,2.561-.264,1-4.383,2.4-3.09-2.245.132-1.611.871-1.611Z" transform="translate(-1652 -885)" fill="#ebf1fe"/>
    <path id="Path_338" data-name="Path 338" d="M2594.469,1709.753l-1.241.37-1.531-.687.211,1.135-3.987,2.561.264,1,4.383,2.4,3.09-2.245-.132-1.611-.871-1.611Z" transform="translate(-1663.921 -885)" fill="#ebf1fe"/>
    <g id="Path_332" data-name="Path 332" transform="translate(935.367 818.692)" fill="#ebf1fe">
      <path d="M 2.859244346618652 6.362184047698975 C 2.324524402618408 6.362184047698975 1.740824341773987 5.932074069976807 1.257804393768311 5.182144165039063 C 0.7974643707275391 4.467403888702393 0.5000043511390686 3.555613994598389 0.5000043511390686 2.859243869781494 C 0.5000043511390686 1.558353900909424 1.558354377746582 0.5000039339065552 2.859244346618652 0.5000039339065552 C 4.160134315490723 0.5000039339065552 5.218484401702881 1.558353900909424 5.218484401702881 2.859243869781494 C 5.218484401702881 3.555613994598389 4.921024322509766 4.467403888702393 4.460684299468994 5.182144165039063 C 3.977664232254028 5.932074069976807 3.393964290618896 6.362184047698975 2.859244346618652 6.362184047698975 Z" stroke="none"/>
      <path d="M 2.859244346618652 1.000003814697266 C 1.834054231643677 1.000003814697266 1.000004291534424 1.834053993225098 1.000004291534424 2.859243869781494 C 1.000004291534424 3.456923961639404 1.272534370422363 4.281623840332031 1.678164482116699 4.911394119262695 C 2.055894374847412 5.49786376953125 2.508464336395264 5.862184047698975 2.859244346618652 5.862184047698975 C 3.210024356842041 5.862184047698975 3.662594318389893 5.49786376953125 4.040324211120605 4.911394119262695 C 4.445954322814941 4.281623840332031 4.718484401702881 3.456923961639404 4.718484401702881 2.859243869781494 C 4.718484401702881 1.834053993225098 3.884434223175049 1.000003814697266 2.859244346618652 1.000003814697266 M 2.859244346618652 3.814697265625e-06 C 4.438364505767822 3.814697265625e-06 5.718484401702881 1.280123710632324 5.718484401702881 2.859243869781494 C 5.718484401702881 4.438364028930664 4.438364505767822 6.862184047698975 2.859244346618652 6.862184047698975 C 1.280124187469482 6.862184047698975 4.291534423828125e-06 4.438364028930664 4.291534423828125e-06 2.859243869781494 C 4.291534423828125e-06 1.280123710632324 1.280124187469482 3.814697265625e-06 2.859244346618652 3.814697265625e-06 Z" stroke="none" fill="#7a93c4"/>
    </g>
    <g id="Path_336" data-name="Path 336" transform="translate(926.824 818.692)" fill="#ebf1fe">
      <path d="M 2.859244585037231 6.362184047698975 C 2.324524641036987 6.362184047698975 1.740824580192566 5.932074069976807 1.25780463218689 5.182144165039063 C 0.7974646091461182 4.467403888702393 0.5000045895576477 3.555613994598389 0.5000045895576477 2.859243869781494 C 0.5000045895576477 1.558353900909424 1.558354616165161 0.5000039339065552 2.859244585037231 0.5000039339065552 C 4.160134792327881 0.5000039339065552 5.218494415283203 1.558353900909424 5.218494415283203 2.859243869781494 C 5.218494415283203 3.555613994598389 4.921034812927246 4.467403888702393 4.460684776306152 5.182144165039063 C 3.977664470672607 5.932074069976807 3.393964529037476 6.362184047698975 2.859244585037231 6.362184047698975 Z" stroke="none"/>
      <path d="M 2.859244585037231 1.000003814697266 C 1.834054470062256 1.000003814697266 0.9999947547912598 1.834053993225098 0.9999947547912598 2.859243869781494 C 0.9999947547912598 3.456923961639404 1.272524356842041 4.281613826751709 1.678154468536377 4.911394119262695 C 2.055894613265991 5.49786376953125 2.508454561233521 5.862184047698975 2.859244585037231 5.862184047698975 C 3.21002459526062 5.862184047698975 3.662594556808472 5.49786376953125 4.040324687957764 4.911394119262695 C 4.445954322814941 4.281623840332031 4.718484878540039 3.456923961639404 4.718484878540039 2.859243869781494 C 4.718484878540039 1.834053993225098 3.884434700012207 1.000003814697266 2.859244585037231 1.000003814697266 M 2.859244585037231 3.814697265625e-06 C 4.438364505767822 3.814697265625e-06 5.718484401702881 1.280123710632324 5.718484401702881 2.859243869781494 C 5.718484401702881 4.438364028930664 4.438364505767822 6.862184047698975 2.859244585037231 6.862184047698975 C 1.280124664306641 6.862184047698975 -5.245208740234375e-06 4.438364028930664 -5.245208740234375e-06 2.859243869781494 C -5.245208740234375e-06 1.280123710632324 1.280124664306641 3.814697265625e-06 2.859244585037231 3.814697265625e-06 Z" stroke="none" fill="#7a93c4"/>
    </g>
    <path id="Path_333" data-name="Path 333" d="M2591.531,1713.1v1.232l3.952,2.321" transform="translate(-1651.941 -888.864)" fill="none" stroke="#7a93c4" stroke-width="1"/>
    <path id="Path_335" data-name="Path 335" d="M2595.483,1713.1v1.232l-3.952,2.321" transform="translate(-1667.164 -888.864)" fill="none" stroke="#7a93c4" stroke-width="1"/>
    <g id="Path_328" data-name="Path 328" transform="translate(944 812) rotate(90)" fill="none" stroke-miterlimit="10">
      <path d="M5.775,20h11.55L23.1,10,17.324,0H5.775L0,10Z" stroke="none"/>
      <path d="M 16.74710273742676 18.9999828338623 L 21.94442749023438 9.999987602233887 L 16.74709701538086 1.000002384185791 L 6.352073669433594 1.000002384185791 L 1.154763698577881 9.999982833862305 L 6.35207462310791 18.9999828338623 L 16.74710273742676 18.9999828338623 M 17.32438850402832 19.9999828338623 L 5.774787902832031 19.9999828338623 L -2.25982671508973e-06 9.999982833862305 L 5.774787902832031 2.370605443502427e-06 L 17.32438850402832 2.370605443502427e-06 L 23.09919738769531 9.999982833862305 L 17.32438850402832 19.9999828338623 Z" stroke="none" fill="#7a93c4"/>
    </g>
    <path id="Path_330" data-name="Path 330" d="M2594.364,1712.1v1.613l-3.313,1.951" transform="translate(-1662.139 -884.283)" fill="none" stroke="#7a93c4" stroke-width="1"/>
    <path id="Path_334" data-name="Path 334" d="M2591.051,1712.1v1.613l3.313,1.951" transform="translate(-1655.021 -884.283)" fill="none" stroke="#7a93c4" stroke-width="1"/>
    <g id="Path_329" data-name="Path 329" transform="translate(930.273 820.582)" fill="#fff">
      <path d="M 3.731185674667358 8.454842567443848 C 2.980555772781372 8.454842567443848 2.172125577926636 7.868082523345947 1.513185620307922 6.845022678375244 C 0.8976956605911255 5.889412879943848 0.4999956786632538 4.667162895202637 0.4999956786632538 3.731182813644409 C 0.4999956786632538 1.94950270652771 1.949505686759949 0.5000027418136597 3.731185674667358 0.5000027418136597 C 5.512865543365479 0.5000027418136597 6.962375640869141 1.94950270652771 6.962375640869141 3.731182813644409 C 6.962375640869141 4.667162895202637 6.564675807952881 5.889412879943848 5.949185848236084 6.845022678375244 C 5.290245532989502 7.868082523345947 4.481815814971924 8.454842567443848 3.731185674667358 8.454842567443848 Z" stroke="none"/>
      <path d="M 3.731185674667358 1.000002861022949 C 2.225205898284912 1.000002861022949 0.9999957084655762 2.225202560424805 0.9999957084655762 3.73118257522583 C 0.9999957084655762 5.437282562255859 2.438665866851807 7.954842567443848 3.731185674667358 7.954842567443848 C 5.02370548248291 7.954842567443848 6.462375640869141 5.437282562255859 6.462375640869141 3.73118257522583 C 6.462375640869141 2.225202560424805 5.237165451049805 1.000002861022949 3.731185674667358 1.000002861022949 M 3.731185674667358 2.86102294921875e-06 C 5.791865825653076 2.86102294921875e-06 7.462375640869141 1.670512676239014 7.462375640869141 3.73118257522583 C 7.462375640869141 5.791862487792969 5.791865825653076 8.954842567443848 3.731185674667358 8.954842567443848 C 1.670505523681641 8.954842567443848 -4.291534423828125e-06 5.791862487792969 -4.291534423828125e-06 3.73118257522583 C -4.291534423828125e-06 1.670512676239014 1.670505523681641 2.86102294921875e-06 3.731185674667358 2.86102294921875e-06 Z" stroke="none" fill="#7a93c4"/>
    </g>
  </g>
</svg>
