<svg xmlns="http://www.w3.org/2000/svg" width="25" height="25" viewBox="0 0 25 25">
  <g id="Group_271" data-name="Group 271" transform="translate(-819 -9315)">
    <rect id="Rectangle_340" data-name="Rectangle 340" width="25" height="25" rx="2" transform="translate(819 9315)" fill="#5f5c5c"/>
    <g id="Group_126" data-name="Group 126" transform="translate(823.094 9322.55)">
      <path id="Path_273" data-name="Path 273" d="M522,1111.513h2.651a.834.834,0,0,1,.767.507,14.837,14.837,0,0,0,.911,1.911,10.724,10.724,0,0,0,1.219,1.711.437.437,0,0,0,.784-.25l.062-1.766v-.873a1,1,0,0,0-.922-.994l-.23-.018h0c0-.375.72-.681,1.1-.681h2.5a.855.855,0,0,1,.855.855v3.484a.437.437,0,0,0,.787.262,10.978,10.978,0,0,0,1.132-1.543,15.143,15.143,0,0,0,1-2.2.777.777,0,0,1,.709-.46h3.029a.528.528,0,0,1,.456.793s-.454.789-.878,1.49-1.766,2.349-1.766,2.349a.809.809,0,0,0,.131,1.115l.829.813s1.626,1.623,1.575,1.573a.694.694,0,0,1-.507,1.168H535.32a1.633,1.633,0,0,1-1.338-.7l-1.164-1.328c-.427-.4-1.122.172-1.122.755v.737a.532.532,0,0,1-.532.532h-1.228a5.474,5.474,0,0,1-3.538-1.3c-2.677-2.315-4.725-7.4-4.725-7.4A.374.374,0,0,1,522,1111.513Z" transform="translate(-521.63 -1111.059)" fill="#fff"/>
    </g>
  </g>
</svg>
