<svg xmlns="http://www.w3.org/2000/svg" width="66" height="60" viewBox="0 0 66 60">
  <g id="void-colba" transform="translate(-275 -790)">
    <g id="Path_19" data-name="Path 19" transform="translate(274.966 790)" fill="none">
      <path d="M65.914,58.507C65.7,58.133,42.033,15.04,42.033,15.04V3.84a1.267,1.267,0,0,1,1.436-1.387c.691,0,1.276-.213,1.276-1.173,0-.853-.213-1.28-1.33-1.28h-20.9c-1.117,0-1.33.48-1.33,1.28,0,.96.638,1.173,1.276,1.173.691,0,1.436.213,1.436,1.387v11.2S.335,58.133.175,58.507C-.25,59.307.335,60,1.239,60H64.8C65.755,60,66.286,59.307,65.914,58.507Z" stroke="none"/>
      <path d="M 58.2796516418457 55 C 52.73979187011719 44.91943740844727 41.75729751586914 24.92383003234863 37.65080261230469 17.44700241088867 L 37.03330993652344 16.32270812988281 L 37.03330993652344 15.04000186920166 L 37.03330993652344 9.760002136230469 L 37.03330993652344 5.000001907348633 L 33.20431137084961 5.000001907348633 L 32.72563171386719 5.000001907348633 L 28.89663124084473 5.000001907348633 L 28.89663124084473 9.760002136230469 L 28.89663124084473 15.04000186920166 L 28.89663124084473 16.31765556335449 L 28.2836971282959 17.43868255615234 C 21.62935829162598 29.60915565490723 12.50926494598389 46.29999160766602 7.767194271087646 55 L 32.77881622314453 55 L 33.25749588012695 55 L 58.2796516418457 55 M 64.79723358154297 60 C 64.58449554443359 60 63.46757888793945 60 61.76560211181641 60 L 33.25749588012695 60 L 32.77881622314453 60 L 4.270723819732666 60 C 2.568737030029297 60 1.451817035675049 60 1.239070296287537 60 C 0.334896981716156 60 -0.2501563429832458 59.30668258666992 0.1753370016813278 58.50668334960938 C 0.334896981716156 58.13335037231445 23.89663124084473 15.04000186920166 23.89663124084473 15.04000186920166 C 23.89663124084473 15.04000186920166 23.89663124084473 11.41333484649658 23.89663124084473 9.760002136230469 C 23.89663124084473 7.41333532333374 23.89663124084473 4.480001926422119 23.89663124084473 3.840001821517944 C 23.89663124084473 2.666668653488159 23.15201759338379 2.453335285186768 22.46059036254883 2.453335285186768 C 21.82234954833984 2.453335285186768 21.18409729003906 2.240001916885376 21.18409729003906 1.280001878738403 C 21.18409729003906 0.4800018966197968 21.3968563079834 1.9073486328125e-06 22.5137767791748 1.9073486328125e-06 C 23.09883117675781 1.9073486328125e-06 27.88562965393066 1.9073486328125e-06 32.72563171386719 1.9073486328125e-06 C 32.88518905639648 1.9073486328125e-06 33.04475021362305 1.9073486328125e-06 33.20431137084961 1.9073486328125e-06 C 38.0443115234375 1.9073486328125e-06 42.83111190795898 1.9073486328125e-06 43.41616439819336 1.9073486328125e-06 C 44.53308486938477 1.9073486328125e-06 44.74583053588867 0.4266685843467712 44.74583053588867 1.280001878738403 C 44.74583053588867 2.240001916885376 44.1607780456543 2.453335285186768 43.46936416625977 2.453335285186768 C 42.77793884277344 2.453335285186768 42.03330993652344 2.720001935958862 42.03330993652344 3.840001821517944 C 42.03330993652344 4.533335208892822 42.03330993652344 7.41333532333374 42.03330993652344 9.760002136230469 C 42.03330993652344 11.41333484649658 42.03330993652344 15.04000186920166 42.03330993652344 15.04000186920166 C 42.03330993652344 15.04000186920166 65.701416015625 58.13335037231445 65.91416168212891 58.50668334960938 C 66.28645324707031 59.30668258666992 65.75459289550781 60 64.79723358154297 60 Z" stroke="none" fill="#2d292a"/>
    </g>
  </g>
</svg>
