<svg xmlns="http://www.w3.org/2000/svg" width="1606.726" height="1228.109" viewBox="0 0 1606.726 1228.109">
  <g id="bacgr" transform="translate(-144.48 130.665)">
    <path id="_111111111111111-02" data-name="111111111111111-02" d="M129.5,298.558l129-74.548V75.048L129.5.5.5,75.048v149.1Z" transform="translate(1214 103)" fill="#eff8f6"/>
    <path id="_111111111111111-02-2" data-name="111111111111111-02" d="M129.5,298.558l129-74.548V75.048L129.5.5.5,75.048v149.1Z" transform="translate(413 565.5)" fill="#eff8f6"/>
    <path id="_111111111111111-02-3" data-name="111111111111111-02" d="M129.5.5.5,75.048V224.009l129,74.548,129-74.548V74.913Z" transform="translate(278.975 796)" fill="none" stroke="#eff8f6" stroke-miterlimit="10" stroke-width="5"/>
    <path id="_111111111111111-02-4" data-name="111111111111111-02" d="M.5,223.966,129.475,298.5,258.45,223.966V75.034L129.475.5" transform="translate(946 103)" fill="none" stroke="#eff8f6" stroke-miterlimit="10" stroke-width="5"/>
    <path id="_111111111111111-02-5" data-name="111111111111111-02" d="M258.45,223.966,129.475,298.5.5,223.966V75.034L129.475.5" transform="translate(1348 -129)" fill="none" stroke="#eff8f6" stroke-miterlimit="10" stroke-width="5"/>
    <path id="_111111111111111-02-6" data-name="111111111111111-02" d="M.5,75.034,129.475.5,258.45,75.034V223.966L129.475,298.5" transform="translate(278 334)" fill="none" stroke="#eff8f6" stroke-miterlimit="10" stroke-width="5"/>
    <path id="_111111111111111-02-7" data-name="111111111111111-02" d="M129.475,298.5,258.45,223.966V75.034L129.475.5" transform="translate(1606.95 634) rotate(-180)" fill="none" stroke="#eff8f6" stroke-miterlimit="10" stroke-width="5"/>
    <path id="_111111111111111-02-8" data-name="111111111111111-02" d="M129.475,298.5,258.45,223.966V75.034" transform="translate(937.95 864) rotate(-180)" fill="none" stroke="#eff8f6" stroke-miterlimit="10" stroke-width="5"/>
    <path id="_111111111111111-02-9" data-name="111111111111111-02" d="M129.475,298.5,258.45,223.966V75.034" transform="translate(340.751 526.873) rotate(60)" fill="none" stroke="#eff8f6" stroke-miterlimit="10" stroke-width="5"/>
    <g id="Group_245" data-name="Group 245" transform="translate(1239.44 131.755)">
      <line id="Line_171" data-name="Line 171" y1="60.304" x2="104.424" transform="translate(0 0)" fill="none" stroke="#fff" stroke-miterlimit="10" stroke-width="5"/>
      <line id="Line_172" data-name="Line 172" x1="104.424" y1="60.304" transform="translate(0 180.914)" fill="none" stroke="#fff" stroke-miterlimit="10" stroke-width="5"/>
      <line id="Line_173" data-name="Line 173" y2="120.61" transform="translate(208.848 60.304)" fill="none" stroke="#fff" stroke-miterlimit="10" stroke-width="5"/>
    </g>
    <g id="Group_246" data-name="Group 246" transform="translate(972.44 131.755)">
      <line id="Line_172-2" data-name="Line 172" x1="104.424" y1="60.304" transform="translate(0 180.914)" fill="none" stroke="#eff8f6" stroke-miterlimit="10" stroke-width="5"/>
    </g>
    <g id="Group_248" data-name="Group 248" transform="translate(1375.44 363.755)">
      <line id="Line_172-3" data-name="Line 172" x1="104.424" y1="60.304" transform="translate(0 180.914)" fill="none" stroke="#eff8f6" stroke-miterlimit="10" stroke-width="5"/>
    </g>
    <g id="Group_249" data-name="Group 249" transform="translate(304.44 362.755)">
      <line id="Line_173-2" data-name="Line 173" y2="120.61" transform="translate(208.848 60.304)" fill="none" stroke="#eff8f6" stroke-miterlimit="10" stroke-width="5"/>
    </g>
    <g id="Group_250" data-name="Group 250" transform="translate(438.44 593.755)">
      <line id="Line_171-2" data-name="Line 171" x1="104.424" y1="60.304" transform="translate(104.424 0)" fill="none" stroke="#fff" stroke-miterlimit="10" stroke-width="5"/>
      <line id="Line_172-4" data-name="Line 172" y1="60.304" x2="104.424" transform="translate(104.424 180.914)" fill="none" stroke="#fff" stroke-miterlimit="10" stroke-width="5"/>
      <line id="Line_173-3" data-name="Line 173" y2="120.61" transform="translate(0 60.304)" fill="none" stroke="#fff" stroke-miterlimit="10" stroke-width="5"/>
    </g>
    <g id="Group_258" data-name="Group 258" transform="translate(1507 132)">
      <line id="Line_171-3" data-name="Line 171" y1="60.304" x2="104.424" transform="translate(0 0)" fill="none" stroke="#eff8f6" stroke-miterlimit="10" stroke-width="5"/>
    </g>
    <path id="_111111111111111-02-10" data-name="111111111111111-02" d="M.5,235.174l130.243-75.267,130.243,75.267" transform="translate(542.514 636.593)" fill="none" stroke="#eff8f6" stroke-miterlimit="10" stroke-width="5"/>
    <g id="Group_256" data-name="Group 256" transform="translate(1211 600)">
      <line id="Line_173-4" data-name="Line 173" y2="60.255" transform="translate(0 43.008)" fill="none" stroke="#eff8f6" stroke-miterlimit="10" stroke-width="5"/>
    </g>
    <path id="_111111111111111-02-11" data-name="111111111111111-02" d="M0,0,128.975,74.534V223.466" transform="translate(1739.515 327.252) rotate(120)" fill="none" stroke="#eff8f6" stroke-miterlimit="10" stroke-width="5"/>
    <path id="_111111111111111-02-12" data-name="111111111111111-02" d="M0,0,128.975,74.534V223.466" transform="translate(1749.955 169.966) rotate(-180)" fill="none" stroke="#eff8f6" stroke-miterlimit="10" stroke-width="5"/>
  </g>
</svg>
