<svg xmlns="http://www.w3.org/2000/svg" width="443.5" height="557.239" viewBox="0 0 443.5 557.239">
  <g id="card-brand-mobile-back" transform="translate(61.5 21.299)">
    <path id="_111111111111111-02" data-name="111111111111111-02" d="M71.422.5.5,41.485v81.9l70.922,40.985,70.922-40.985V41.411Z" transform="translate(-62 240)" fill="#eff8f6"/>
    <path id="_111111111111111-02-2" data-name="111111111111111-02" d="M.5,41.477,71.408.5l70.908,40.977v81.88L71.408,164.335" transform="translate(14.528 370.306)" fill="none" stroke="#eff8f6" stroke-miterlimit="10" stroke-width="3"/>
    <g id="Group_263" data-name="Group 263" transform="translate(-48.477 256.49)">
      <line id="Line_172" data-name="Line 172" x1="57.41" y2="33.154" transform="translate(0 0)" fill="none" stroke="#fff" stroke-miterlimit="10" stroke-width="3"/>
      <line id="Line_173" data-name="Line 173" y1="66.31" transform="translate(114.821 33.154)" fill="none" stroke="#fff" stroke-miterlimit="10" stroke-width="3"/>
    </g>
    <path id="_111111111111111-02-3" data-name="111111111111111-02" d="M70.973,163.329,141.446,122.6V41.226L70.973.5.5,41.226v81.452Z" transform="translate(240.555 -20.5)" fill="#eff8f6"/>
    <g id="Group_261" data-name="Group 261" transform="translate(254.679 -4.564)">
      <line id="Line_171" data-name="Line 171" y1="32.944" x2="57.047" transform="translate(0 0)" fill="none" stroke="#fff" stroke-miterlimit="10" stroke-width="3"/>
      <line id="Line_172-2" data-name="Line 172" x1="57.047" y1="32.944" transform="translate(0 98.834)" fill="none" stroke="#fff" stroke-miterlimit="10" stroke-width="3"/>
      <line id="Line_173-2" data-name="Line 173" y2="65.89" transform="translate(114.094 32.944)" fill="none" stroke="#fff" stroke-miterlimit="10" stroke-width="3"/>
    </g>
    <g id="Group_260" data-name="Group 260" transform="translate(104.817 94.269)">
      <line id="Line_172-3" data-name="Line 172" x1="57.047" y1="32.944" transform="translate(0 0)" fill="none" stroke="#eff8f6" stroke-miterlimit="10" stroke-width="3"/>
    </g>
    <path id="_111111111111111-02-4" data-name="111111111111111-02" d="M.5,122.58,70.959,163.3l70.459-40.718V41.218L70.959.5" transform="translate(90.146 -20.5)" fill="none" stroke="#eff8f6" stroke-miterlimit="10" stroke-width="3"/>
  </g>
</svg>
