<svg xmlns="http://www.w3.org/2000/svg" width="85.762" height="34.228" viewBox="0 0 85.762 34.228">
  <path id="colba-acadeny_color" d="M-22.337-11.7a4.2,4.2,0,0,0-3.344,1.411,5.69,5.69,0,0,0-1.226,3.863,5.8,5.8,0,0,0,1.182,3.9,4.2,4.2,0,0,0,3.371,1.375,11.508,11.508,0,0,0,3.067-.483v1.31a9.446,9.446,0,0,1-3.3.5,5.576,5.576,0,0,1-4.381-1.723,7.094,7.094,0,0,1-1.542-4.9,7.727,7.727,0,0,1,.743-3.48,5.332,5.332,0,0,1,2.145-2.3,6.491,6.491,0,0,1,3.3-.809,7.963,7.963,0,0,1,3.533.738l-.633,1.283A6.81,6.81,0,0,0-22.337-11.7ZM-4.97-6.442A7.074,7.074,0,0,1-6.53-1.591,5.485,5.485,0,0,1-10.867.176,5.554,5.554,0,0,1-15.249-1.56a7.132,7.132,0,0,1-1.542-4.9,7.042,7.042,0,0,1,1.547-4.865,5.593,5.593,0,0,1,4.395-1.727,5.474,5.474,0,0,1,4.324,1.758A7.067,7.067,0,0,1-4.97-6.442Zm-10.239,0A6.1,6.1,0,0,0-14.1-2.483a3.945,3.945,0,0,0,3.23,1.349A3.907,3.907,0,0,0-7.642-2.479a6.183,6.183,0,0,0,1.09-3.964,6.134,6.134,0,0,0-1.085-3.933,3.89,3.89,0,0,0-3.212-1.34A3.966,3.966,0,0,0-14.1-10.367,6.036,6.036,0,0,0-15.209-6.442ZM-1.745,0V-12.85H-.25v11.5H5.418V0Zm9.7-12.85h3.63a6.849,6.849,0,0,1,3.7.765,2.7,2.7,0,0,1,1.143,2.417,2.793,2.793,0,0,1-.637,1.885,3.068,3.068,0,0,1-1.859.962v.088q2.927.5,2.927,3.076A3.3,3.3,0,0,1,15.7-.967,4.957,4.957,0,0,1,12.441,0H7.958Zm1.494,5.5h2.461a4.006,4.006,0,0,0,2.276-.5,1.917,1.917,0,0,0,.694-1.674,1.694,1.694,0,0,0-.773-1.56,4.833,4.833,0,0,0-2.461-.479h-2.2Zm0,1.266v4.808h2.681a3.818,3.818,0,0,0,2.342-.6,2.223,2.223,0,0,0,.787-1.885,2,2,0,0,0-.8-1.758,4.3,4.3,0,0,0-2.448-.562ZM28.058,0l-1.6-4.087h-5.15L19.726,0H18.215l5.08-12.9h1.257L29.605,0ZM25.993-5.432,24.5-9.413q-.29-.756-.6-1.854a16.653,16.653,0,0,1-.554,1.854L21.836-5.432ZM-33.037,21l-1.6-4.087h-5.15L-41.369,21h-1.512L-37.8,8.1h1.257L-31.49,21ZM-35.1,15.568-36.6,11.587q-.29-.756-.6-1.854a16.653,16.653,0,0,1-.554,1.854l-1.512,3.981ZM-23.862,9.3a4.2,4.2,0,0,0-3.344,1.411,5.69,5.69,0,0,0-1.226,3.863,5.8,5.8,0,0,0,1.182,3.9,4.2,4.2,0,0,0,3.371,1.375,11.508,11.508,0,0,0,3.067-.483v1.31a9.446,9.446,0,0,1-3.3.5,5.576,5.576,0,0,1-4.381-1.723,7.094,7.094,0,0,1-1.542-4.9,7.727,7.727,0,0,1,.743-3.48,5.332,5.332,0,0,1,2.145-2.3,6.491,6.491,0,0,1,3.3-.809,7.963,7.963,0,0,1,3.533.738l-.633,1.283A6.81,6.81,0,0,0-23.862,9.3ZM-9.571,21l-1.6-4.087h-5.15L-17.9,21h-1.512l5.08-12.9h1.257L-8.024,21Zm-2.065-5.432-1.494-3.981q-.29-.756-.6-1.854a16.653,16.653,0,0,1-.554,1.854l-1.512,3.981Zm16-1.116a6.487,6.487,0,0,1-1.727,4.865A6.833,6.833,0,0,1-2.338,21H-5.9V8.15H-1.96A6.3,6.3,0,0,1,2.7,9.812,6.273,6.273,0,0,1,4.359,14.452ZM2.777,14.5a5.173,5.173,0,0,0-1.261-3.788A5.054,5.054,0,0,0-2.232,9.442H-4.4V19.708h1.819a5.532,5.532,0,0,0,4.017-1.314A5.2,5.2,0,0,0,2.777,14.5ZM14.748,21H7.585V8.15h7.163V9.478H9.079v4.14H14.4v1.318H9.079v4.729h5.669Zm8.894,0L19.282,9.609h-.07q.123,1.354.123,3.217V21h-1.38V8.15h2.25l4.069,10.6h.07l4.1-10.6h2.232V21H29.188V12.721q0-1.424.123-3.094h-.07L24.846,21Zm14.194-6.425L41.264,8.15h1.617l-4.289,7.866V21H37.08V16.087L32.8,8.15h1.635Z" transform="translate(42.881 13.052)" fill="#ef806c"/>
</svg>
