<svg xmlns="http://www.w3.org/2000/svg" width="30" height="399.5" viewBox="0 0 30 399.5">
  <g id="left-colba" transform="translate(-99 -292)">
    <path id="Subtraction_3" data-name="Subtraction 3" d="M1414,1917h-1a10.011,10.011,0,0,1-10-10V1789h21v118A10.011,10.011,0,0,1,1414,1917Z" transform="translate(-1299.5 -1226.498)" fill="#7a93c4"/>
    <path id="Subtraction_2" data-name="Subtraction 2" d="M1414,2186h-1a10.011,10.011,0,0,1-10-10V1789h21v387A10.011,10.011,0,0,1,1414,2186Z" transform="translate(-1299.5 -1495.5)" fill="none" stroke="#2d292a" stroke-width="2"/>
    <line id="Line_171" data-name="Line 171" x2="4" transform="translate(120.5 654.5)" fill="none" stroke="#2d292a" stroke-width="2"/>
    <line id="Line_172" data-name="Line 172" x2="4" transform="translate(120.5 618.5)" fill="none" stroke="#2d292a" stroke-width="2"/>
    <line id="Line_173" data-name="Line 173" x2="4" transform="translate(120.5 582.5)" fill="none" stroke="#2d292a" stroke-width="2"/>
    <line id="Line_174" data-name="Line 174" x2="4" transform="translate(120.5 546.5)" fill="none" stroke="#2d292a" stroke-width="2"/>
    <line id="Line_175" data-name="Line 175" x2="4" transform="translate(120.5 510.5)" fill="none" stroke="#2d292a" stroke-width="2"/>
    <line id="Line_176" data-name="Line 176" x2="4" transform="translate(120.5 473.5)" fill="none" stroke="#2d292a" stroke-width="2"/>
    <line id="Line_177" data-name="Line 177" x2="4" transform="translate(120.5 437.5)" fill="none" stroke="#2d292a" stroke-width="2"/>
    <line id="Line_178" data-name="Line 178" x2="4" transform="translate(120.5 401.5)" fill="none" stroke="#2d292a" stroke-width="2"/>
    <line id="Line_179" data-name="Line 179" x2="4" transform="translate(120.5 365.5)" fill="none" stroke="#2d292a" stroke-width="2"/>
    <line id="Line_180" data-name="Line 180" x2="4" transform="translate(120.5 329.5)" fill="none" stroke="#2d292a" stroke-width="2"/>
    <rect id="Rectangle_256" data-name="Rectangle 256" width="28" height="4" rx="2" transform="translate(100 293)" fill="#fff" stroke="#2d292a" stroke-width="2"/>
  </g>
</svg>
