<svg xmlns="http://www.w3.org/2000/svg" width="37.392" height="36.622" viewBox="0 0 37.392 36.622">
  <g id="logoMenu" transform="translate(-1712.025 -1013)" opacity="0.2">
    <path id="Path_136" data-name="Path 136" d="M86.647,31.97c-.329-.572-3.918-6.8-3.918-6.8A15.268,15.268,0,0,0,72.186,6.682V2.127c0-.361.1-.759.853-.759s.743-.52.743-.71C73.782.536,73.8,0,73.1,0H61.842c-.629,0-.743.252-.743.71,0,.532.341.65.719.65s.8.13.8.747v4.92a15.241,15.241,0,0,0-9.906,14.3,14.547,14.547,0,0,0,.532,3.95s-3.577,6.508-3.768,6.885c-.223.43.081.808.593.808H74.285A13.38,13.38,0,0,1,67.8,34.536a11.8,11.8,0,0,1-2.229-.223,5.951,5.951,0,0,0-1.4-.195H61.107c-.382,0-.637.438-.195.755a14.514,14.514,0,0,0,7.048,1.75,16.134,16.134,0,0,0,9.934-3.654H86.1C86.708,32.964,86.976,32.542,86.647,31.97ZM52.593,30.886l1.62-2.931a16.691,16.691,0,0,0,1.839,2.931Zm6.24,0a13.676,13.676,0,0,1-4.04-9.475A13.258,13.258,0,0,1,61.712,9.747s-4.669,8.062-5.071,8.793a4.608,4.608,0,0,0-.581,2.107A6.536,6.536,0,0,0,56.1,21.93c.081.682.552.775.82.3.317-.552,6.553-11.371,6.76-11.736A5.129,5.129,0,0,0,64.7,7.766V2.079h5.416S70.1,6.824,70.1,7.421s.211.917.715,1.035a13.236,13.236,0,0,1,10.316,12.8c0,.248-.02.792-.041,1.068L75.872,13.21a5.058,5.058,0,0,0-2.781-2.269c-.544-.219-.853.13-.6.593s7.973,13.929,7.973,13.929a14.207,14.207,0,0,1-1.7,3.479.43.43,0,0,0,.341.727h.966a.831.831,0,0,0,.853-.447c.292-.467.849-1.421.849-1.421l1.754,3.093h-24.7Z" transform="translate(1662.628 1013)" fill="#2d292a"/>
    <path id="Path_137" data-name="Path 137" d="M89.763,41.222a4.287,4.287,0,0,0-3-1.311,4.06,4.06,0,1,0-.073,8.115,4.284,4.284,0,0,0,3.065-1.307l1.567,1.307A6.442,6.442,0,0,1,86.56,50.1a6.139,6.139,0,1,1,.122-12.264,6.446,6.446,0,0,1,4.657,2.074Z" transform="translate(1644.337 990.522)" fill="#2d292a"/>
  </g>
</svg>
