<svg xmlns="http://www.w3.org/2000/svg" xmlns:xlink="http://www.w3.org/1999/xlink" width="811" height="950" viewBox="0 0 811 950">
  <defs>
    <clipPath id="clip-Artboard_1">
      <rect width="811" height="950"/>
    </clipPath>
  </defs>
  <g id="Artboard_1" data-name="Artboard – 1" clip-path="url(#clip-Artboard_1)">
    <rect width="811" height="950" fill="#fff"/>
    <rect id="Rectangle_346" data-name="Rectangle 346" width="811" height="950" fill="#eff8f6"/>
    <g id="Group_135" data-name="Group 135" transform="translate(5124.859 5285)" opacity="0.6">
      <path id="Path_141" data-name="Path 141" d="M285.982,237.983c-6.532-1.564-6.256-7.543-1.2-9.843,12.512-5.8,30.634-19.5,30.634-50.87,0-37.255-28.425-66.6-78.654-66.6H125.27V379.278h133.3c52.252,0,77.366-43.327,77.366-75.707C335.933,275.054,324.618,247.55,285.982,237.983Zm-102.94-84.814H228.3c24.562,0,36.522,19.962,36.522,32.841v3.22c0,15.454-11.959,32.288-34.314,32.288H183.317c-3.863,0-6.348-.92-6.348-6.807,0-5.979-.091-51.514-.091-55.561C176.969,155.009,178.994,153.169,183.042,153.169Zm100.64,148.194c0,17.11-15.362,35.692-42.408,35.692H184.053c-4.232,0-6.9-1.012-6.9-7.544,0-6.623-.092-57.032-.092-61.448s2.208-6.531,6.623-6.531h59.979c26.954,0,40.109,20.513,40.109,34.771C283.681,297.96,283.681,299.523,283.681,301.363Z" transform="translate(-5270.129 -4714.628)" fill="#fff"/>
      <path id="Path_142" data-name="Path 142" d="M316.663,110.67H261.191L154.02,379.278H208.2s13.615-34.22,16.191-40.567,4.967-6.623,9.751-6.623c4.692,0,88.313-.092,107.171-.092,5.243,0,9.567-.092,11.683,5.427,3.036,7.819,16.651,41.855,16.651,41.855h54.183Zm10.67,181.4h-77c-4.876,0-6.072-2.852-4.508-6.991s36.981-92.817,39.741-99.532c2.024-4.783,4.508-4.783,6.808.184,2.76,6.256,37.809,94.289,39.373,98.7C333.313,288.944,333.221,292.164,327.333,292.072Z" transform="translate(-5034.4 -4714.628)" fill="#fff"/>
      <path id="Path_143" data-name="Path 143" d="M186.13,148.645l4.876,2.116a174.8,174.8,0,0,1,11.867-20.7c7.084-10.947,14.811-16.742,13.339,4.323-1.656,23-9.844,57.586-18.858,85.458h22.814s8.371-28.241,16.191-51.514,17.386-42.223,22.171-44.155c-.737,6.991,3.311,17.753,15.454,17.753,12.051,0,15.639-11.223,15.639-15.638,0-8-5.612-16.282-15.915-16.282-8.463,0-22.171,2.576-37.532,41.211a131.286,131.286,0,0,0,1.2-21.249c-.46-11.958-6.9-19.41-15-19.685C214,109.918,201.033,113.505,186.13,148.645Z" transform="translate(-4771.122 -4720.039)" fill="#fff"/>
      <rect id="Rectangle_174" data-name="Rectangle 174" width="116.279" height="23.733" transform="translate(-4598.975 -4470.942)" fill="#fff"/>
    </g>
    <g id="Group_134" data-name="Group 134" transform="translate(6694.25 4968)" opacity="0.6">
      <path id="Path_138" data-name="Path 138" d="M217.011,186.881l35.6-29.713s-38.729-47.1-107.631-47.1C71.018,110.07,0,164.527,0,251.457c0,71.843,61.543,136.7,144.612,136.7,53.908,0,92.821-28.608,107.723-47.1l-35.6-29.8s-25.022,29.712-71.018,29.712S52.8,302.695,52.8,249.066s45.168-92.173,94.384-92.173C190.333,156.892,217.011,186.881,217.011,186.881Z" transform="translate(-6297.25 -4719.547)" fill="#fff"/>
      <path id="Path_139" data-name="Path 139" d="M181.184,110.07C97.2,110.07,35.1,173.91,35.1,247.593c0,84.906,70.65,140.559,144.336,140.559,75.71,0,144.336-58.6,144.336-140.191C323.681,169.219,254.5,110.07,181.184,110.07Zm-.736,234.112c-46.824,0-91.809-37.807-91.809-95.3,0-49.95,39.557-93.185,93-93.185,46.64,0,90.7,40.107,90.7,93.461C272.349,304.443,228.653,344.182,180.449,344.182Z" transform="translate(-6009.456 -4719.547)" fill="#fff"/>
      <path id="Path_140" data-name="Path 140" d="M138.585,332.179c-8.647,0-8.831-4.507-8.831-9.566V110.67H77.87V379.278H238.029v-47.1Z" transform="translate(-5658.773 -4714.628)" fill="#fff"/>
      <path id="Path_144" data-name="Path 144" d="M107.52,148.645l4.876,2.116a174.89,174.89,0,0,1,11.867-20.7c7.083-10.947,14.811-16.742,13.339,4.323-1.656,23-9.843,57.586-18.859,85.458h22.814s8.371-28.241,16.191-51.514,17.386-42.223,22.17-44.155c-.736,6.991,3.4,17.753,15.455,17.753s15.638-11.223,15.638-15.638c0-8-5.611-16.282-15.915-16.282-8.463,0-22.17,2.576-37.533,41.211a131.25,131.25,0,0,0,1.2-21.249c-.46-11.958-6.9-19.41-14.995-19.685C135.394,109.918,122.423,113.505,107.52,148.645Z" transform="translate(-5415.666 -4720.039)" fill="#fff"/>
      <rect id="Rectangle_175" data-name="Rectangle 175" width="194.012" height="23.733" transform="translate(-5418.629 -4470.942)" fill="#fff"/>
      <path id="Path_145" data-name="Path 145" d="M159.637,110.244c-27.322-.736-52.436,24.285-61.543,56.573C87.7,203.7,110.605,223.39,132.04,223.39c23.918,0,51.148-18.4,60.071-53.905C202.046,129.93,179.324,110.8,159.637,110.244Zm7.268,59.793c-11.039,38.175-24.562,48.57-33.761,48.018-9.107-.552-20.146-7.819-8.371-52.986,11.775-45.258,27.414-49.03,33.393-49.03C165.249,115.948,179.876,125.238,166.9,170.037Z" transform="translate(-5514.147 -4718.25)" fill="#fff"/>
    </g>
  </g>
</svg>
