<svg xmlns="http://www.w3.org/2000/svg" width="72" height="52.334" viewBox="0 0 72 52.334">
  <g id="superman_gray" transform="translate(779.525 107.737)">
    <path id="Path_490" data-name="Path 490" d="M-656.693-91.747l-.519-.016c-.184-.062-.378.009-.562-.043l-.576-.017c-.185-.062-.381.01-.566-.044l-.52-.016c-.183-.063-.377.009-.561-.043-.5-.042-.5-.041-.261-.494.045-.087.088-.175.175-.351l-2.621,1.022,2.225,2.429c.3.331.6.67.919.986.184.182.076.234-.082.3-.319.128-.637.26-.959.383-.194.074-.132.162-.046.285.714,1.025,1.419,2.056,2.134,3.08.362.518.694,1.057,1.1,1.546a.613.613,0,0,0,.322.029c1.385,0,2.771,0,4.156.006.088,0,.225-.082.269.085-.35.34-.705.676-1.048,1.023a.5.5,0,0,1-.39.169c-1.871-.006-3.743-.01-5.614,0-.325,0-.458-.255-.644-.414-.826-.7-1.623-1.444-2.434-2.166-.882-.786-1.791-1.542-2.645-2.36-.1-.1-.252-.152-.336-.281-.038-.477,0-.955-.018-1.432,0-.1.029-.2-.03-.291-.6-.428-1.183-.871-1.795-1.277a.892.892,0,0,1-.359-.693c-.015-.094.014-.193-.045-.286a.152.152,0,0,1,.016-.213c.064-.044.126.017.185.06q.844.611,1.692,1.217c.048.035.1.062.229.14-.183-.367-.336-.66-.477-.959a1.893,1.893,0,0,1-.357-.953c-.043-.284-.005-.569-.021-.853,0-.063.047-.168-.088-.167a3.7,3.7,0,0,0-.422.2c-.185.115-.255.066-.251-.139-.042-.1.009-.218-.043-.32l-.016-.281c-.051-.12.015-.255-.046-.375a.413.413,0,0,1,.009-.059c.038-.128-.141-.29-.036-.35.123-.071.267.082.4.144.494.238.98.49,1.472.732.085.042.163.124.309.076-.337-.53-.593-1.107-1.247-1.337a3.08,3.08,0,0,0-1.047-.11c-.156,0-.241,0-.285-.225-.159-.809-.381-1.6-.567-2.408-.084-.365-.149-.732-.262-1.091-.061-.195.086-.355.193-.509a10.166,10.166,0,0,1,2.994-2.876,10.405,10.405,0,0,1,3.746-1.407,10.4,10.4,0,0,1,3.846.06,13.262,13.262,0,0,1,2.736.945c.1.046.1.086.06.176q-.432,1.023-.853,2.05c-.063.152-.142.14-.275.076a6.428,6.428,0,0,0-2.108-.606c-.1-.059-.213,0-.312-.046a4.766,4.766,0,0,0-.9,0c-.142.052-.3-.017-.436.045a5.487,5.487,0,0,0-1.246.262c-.2.054-.132.207-.114.315.119.7.249,1.4.38,2.1.092.494.189.987.284,1.48.082.151.226.072.343.089.142.021.291-.037.43.035.359.6.677,1.225,1.079,1.8.493.066.989.012,1.483.03a5.922,5.922,0,0,1,.742.018c.775.363,1.543.741,2.328,1.08.213.092.2.162.1.31-.027.041-.041.09-.067.131a1.7,1.7,0,0,0-.248,1.376c0,.11.094.241-.068.316-.177-.235-.37-.459-.526-.707a.73.73,0,0,0-.831-.338C-656.311-91.765-656.507-91.694-656.693-91.747Z" transform="translate(-82.927 -3.666)" fill="#5f5c5c"/>
    <path id="Path_491" data-name="Path 491" d="M-595.888,35.835c-1,0-2-.007-3,.006-.231,0-.3-.051-.3-.293.012-1.541.007-3.082,0-4.623,0-.114.063-.276-.167-.262-.1.006-.127.025-.143.128-.216,1.389-.439,2.777-.66,4.165-.039.244-.086.487-.116.732-.015.117-.067.148-.175.148q-1.276,0-2.552,0c-.123,0-.206-.029-.22-.179-.055-.605-.195-1.2-.28-1.8-.079-.554-.179-1.105-.251-1.661-.062-.478-.162-.95-.229-1.426-.016-.108-.068-.1-.136-.1-.087-.008-.131.026-.128.117,0,.07,0,.14,0,.21,0,1.521,0,3.042.005,4.563,0,.22-.047.286-.277.283-1.011-.014-2.021-.005-3.032-.005a11.162,11.162,0,0,1-.009-1.561l.016-.229c.059-.1,0-.213.046-.312l.074-.71c.059-.1,0-.213.046-.312q.037-.355.074-.71c.059-.1,0-.213.046-.311q.037-.355.074-.71c.059-.1,0-.213.046-.311.033-.653.137-1.3.21-1.948.064-.577.127-1.158.221-1.733s.128-1.18.181-1.771c.015-.16.06-.256.247-.256q1.711.007,3.422,0c.153,0,.207.056.233.2q.358,1.938.727,3.875c.017.091.021.218.162.208s.135-.114.155-.218c.153-.8.315-1.6.468-2.4.087-.452.168-.906.238-1.361.032-.2.1-.309.335-.307,1.111.012,2.221.009,3.332,0,.178,0,.235.038.244.228a8.3,8.3,0,0,0,.121.854c.048.1-.011.215.046.314a7.066,7.066,0,0,0,.135,1.248c.048.1-.012.214.046.312a2.362,2.362,0,0,0,.073.71c.048.1-.009.217.046.316a7.187,7.187,0,0,0,.135,1.246c.048.1-.01.216.046.315a7.225,7.225,0,0,0,.135,1.248c.048.1-.011.215.046.313a2.362,2.362,0,0,0,.073.709c.048.1-.009.217.046.317l.016.224c.048.1-.013.214.046.311a2.343,2.343,0,0,0,.073.71A8.751,8.751,0,0,1-595.888,35.835Z" transform="translate(-128.893 -99.47)" fill="#5f5c5c"/>
    <path id="Path_492" data-name="Path 492" d="M-708.887,27.728c-.008.109-.024.218-.024.326,0,2.493-.005,4.986.005,7.479,0,.249-.062.317-.311.313-.951-.015-1.9-.011-2.854,0-.186,0-.256-.035-.255-.242q.01-5.2,0-10.393c0-.2.067-.245.255-.244q3.83.008,7.659,0c.188,0,.258.037.258.244q-.009,5.2,0,10.393c0,.208-.07.244-.257.243-.961-.009-1.922-.012-2.883,0-.226,0-.281-.057-.281-.282.009-2.5.005-5.006,0-7.509,0-.109-.014-.218-.022-.327A5.491,5.491,0,0,0-708.887,27.728Z" transform="translate(-50.372 -99.474)" fill="#5f5c5c"/>
    <path id="Path_493" data-name="Path 493" d="M-519.639,28.917c.132-.07.074-.2.075-.3,0-1.1.009-2.2,0-3.3,0-.232.055-.311.3-.307.9.014,1.8.013,2.7,0,.232,0,.307.058.307.3q-.013,5.257-.008,10.514c-1.041,0-2.082,0-3.123.015-.208,0-.22-.089-.22-.251,0-1.211,0-2.423.008-3.634,0-.249-.037-.367-.32-.333a3.474,3.474,0,0,1-.72,0c-.253-.023-.339.04-.334.318.018,1.2,0,2.4.014,3.6,0,.24-.065.3-.3.3-.951-.014-1.9-.011-2.853,0-.193,0-.255-.045-.254-.247q.009-5.2,0-10.392c0-.213.08-.242.263-.241.961.008,1.922.011,2.883,0,.222,0,.261.076.259.275-.009,1.1,0,2.2,0,3.3,0,.109.014.218.022.327a6.418,6.418,0,0,0,.979.031A1.037,1.037,0,0,1-519.639,28.917Z" transform="translate(-191.269 -99.469)" fill="#5f5c5c"/>
    <path id="Path_494" data-name="Path 494" d="M-550.417,28.936c0,.81-.013,1.62,0,2.43,0,.216-.065.263-.27.262-1.01-.006-2.019,0-3.029.008a10.717,10.717,0,0,0-.03,1.313c-.007.2.151.147.258.147,1.1,0,2.2,0,3.3,0,.1,0,.22-.044.316.04,0,.8-.014,1.6,0,2.4,0,.241-.067.295-.3.294-2.322-.009-4.644-.006-6.966-.006a.414.414,0,0,1-.032-.262q0-5.176,0-10.352c0-.087-.03-.181.037-.259,2.311,0,4.622.007,6.933,0,.269,0,.3.076.332.329a4.548,4.548,0,0,1-.489,2.235c-.066.165-.181.184-.332.184-.9,0-1.8,0-2.7,0-.109,0-.218.013-.328.02a6.258,6.258,0,0,0-.028,1.038c0,.179.141.132.24.132.587,0,1.175,0,1.762,0,.368,0,.737,0,1.1,0C-550.565,28.894-550.479,28.858-550.417,28.936Z" transform="translate(-166.673 -99.464)" fill="#5f5c5c"/>
    <path id="Path_495" data-name="Path 495" d="M-674.74,24.958c2.3,0,4.6.007,6.907,0,.259,0,.319.063.346.327a4.536,4.536,0,0,1-.5,2.264c-.071.166-.182.155-.311.155-.931,0-1.862.009-2.793-.006-.24,0-.311.066-.292.3.023.288.016.579.021.868a.513.513,0,0,0,.292.03c.918,0,1.837.006,2.755,0,.193,0,.286.03.278.257-.029.827.03,1.654-.031,2.481-1.016,0-2.032,0-3.048-.006-.2,0-.283.033-.27.255.023.4.016.8.021,1.193a.6.6,0,0,0,.323.03c1.09,0,2.18,0,3.27.006.1,0,.221-.068.3.059-.051.789-.02,1.58-.015,2.369,0,.258-.077.308-.319.307-2.313-.009-4.625-.005-6.938,0a.661.661,0,0,1-.024-.3q0-5.144,0-10.289A.489.489,0,0,1-674.74,24.958Z" transform="translate(-78.519 -99.467)" fill="#5f5c5c"/>
    <path id="Path_496" data-name="Path 496" d="M-772.245,26.351c-.156.383-.328.76-.46,1.151-.062.185-.156.217-.325.216-.941-.006-1.883,0-2.824-.006-.178,0-.266.021-.264.237.009,1.662,0,3.324.006,4.987a1.059,1.059,0,0,0,.02.147.6.6,0,0,0,.322.03c1.065,0,2.131,0,3.2,0a.593.593,0,0,1,.321.03v0a11.035,11.035,0,0,1,.027,1.517,5.777,5.777,0,0,1-.032,1.185c-2.032,0-4.065,0-6.1-.016a1.176,1.176,0,0,1-1.147-1.142c-.016-1.922-.014-3.845-.018-5.767,0-.831.011-1.662,0-2.493a1.306,1.306,0,0,1,1.463-1.453c1.722,0,3.445,0,5.167,0l.631,0A6.186,6.186,0,0,1-772.245,26.351Z" transform="translate(0 -99.48)" fill="#5f5c5c"/>
    <path id="Path_497" data-name="Path 497" d="M-740.364,26.326c-.4,1.277-.813,2.553-1.21,3.833-.5,1.6-.981,3.2-1.472,4.8-.069.226-.157.448-.209.679-.035.154-.111.186-.25.185-.86,0-1.721-.006-2.581,0-.162,0-.22-.036-.228-.213a4.3,4.3,0,0,1,.386-2.236.225.225,0,0,0-.008-.216c-.388-.933-.765-1.871-1.141-2.81q-.623-1.556-1.241-3.114l-.365-.911a6.813,6.813,0,0,1,.022-1.377c.991,0,1.982.009,2.973,0,.22,0,.285.081.324.275.265,1.315.54,2.627.812,3.941a.583.583,0,0,0,.374-.009c.105-.764.193-1.531.321-2.292.091-.542.191-1.08.248-1.627.019-.184.129-.3.377-.292.947.023,1.9.008,2.844.007A6.8,6.8,0,0,1-740.364,26.326Z" transform="translate(-23.103 -99.456)" fill="#5f5c5c"/>
    <path id="Path_498" data-name="Path 498" d="M-672.027-31.137l2.078.016c.064.08.228-.069.25.109-1.044.283-2.089.562-3.131.851-1.107.307-2.214.612-3.314.943-.3.09-.482-.078-.68-.2q-2.3-1.446-4.579-2.913c-1.309-.836-2.615-1.676-3.925-2.51-1.4-.889-2.8-1.771-4.193-2.659-.422-.269-.837-.549-1.272-.835a.355.355,0,0,1,.262-.044c1.582,0,3.165.023,4.747-.015a1.9,1.9,0,0,1,1.367.493c1.75,1.478,3.521,2.929,5.287,4.388.9.742,1.8,1.478,2.7,2.219a.369.369,0,0,0,.238.11l2.1.006c.541.057,1.084.009,1.625.026A1.92,1.92,0,0,1-672.027-31.137Z" transform="translate(-66.514 -51.977)" fill="#5f5c5c"/>
    <path id="Path_499" data-name="Path 499" d="M-639.83-107.251a11.915,11.915,0,0,1,2.221-.441c.165-.053.342.017.506-.045h.731c.184.063.378-.01.563.045a11.037,11.037,0,0,1,4.989,1.755c.192.128.227.2.059.386-.792.871-1.57,1.756-2.355,2.633-.028.031-.042.134-.125.054-.04-.039-.039-.071-.015-.127.3-.72.594-1.442.888-2.164.039-.094.112-.179-.048-.263a16.247,16.247,0,0,0-2.72-1.3,11.616,11.616,0,0,0-4.625-.472C-639.82-107.167-639.838-107.194-639.83-107.251Z" transform="translate(-104.715)" fill="#5f5c5c"/>
    <path id="Path_500" data-name="Path 500" d="M-715.366,83.627c.477.028.477.028.477.529v.693a10.788,10.788,0,0,0,1.149-1.221c.178.007.372-.107.529.067-.3.306-.586.616-.888.915-.119.117-.03.2.021.284.285.471.575.939.865,1.407.043.069.094.132.038.216a6.425,6.425,0,0,0-.859-.027c-.233-.379-.468-.758-.7-1.139a.254.254,0,0,0-.158-.139c0,.352,0,.69,0,1.027,0,.1.057.227-.094.279-.242-.072-.5.024-.739-.054V85.218a4.794,4.794,0,0,0-.841,1.25c-.287.066-.582-.02-.868.049-.077-.034-.093-.055-.035-.146.247-.386.46-.795.716-1.174.293-.434.283-.586-.118-.948-.192-.174-.366-.367-.548-.551.169-.163.361-.085.548-.049a12.272,12.272,0,0,0,.954,1.094c.039.042.075.111.139.092.093-.027.052-.117.053-.178,0-.338,0-.676,0-1.013A.539.539,0,0,1-715.366,83.627Z" transform="translate(-46.492 -143.425)" fill="#5f5c5c"/>
    <path id="Path_501" data-name="Path 501" d="M-564.951,86.449q.382-.654.765-1.307a1.783,1.783,0,0,1,.2-.321c.077-.083.059-.124-.007-.191a10.841,10.841,0,0,1-.865-.937c.153-.157.332-.073.5-.053a13.947,13.947,0,0,0,1.1,1.2c.115-.011.072-.1.074-.16.005-.24,0-.481,0-.721,0-.366,0-.366.388-.326l.244,0c.164-.053.207.021.21.176a6.18,6.18,0,0,0,.028,1.035c.267-.283.54-.56.8-.85a3.109,3.109,0,0,1,.347-.368c.179.01.368-.075.535.054-.309.308-.612.622-.929.921-.123.115-.041.186.014.274l.977,1.583c-.282.1-.581-.012-.865.066-.189-.085-.21-.288-.306-.438-.174-.27-.343-.545-.513-.817-.139,0-.084.11-.085.173-.006.289,0,.579-.005.868,0,.072.043.162-.051.215l-.072,0a1.806,1.806,0,0,0-.652,0v0c-.133-.111-.05-.259-.059-.389-.015-.239,0-.48-.006-.72,0-.069.034-.174-.1-.157a8.229,8.229,0,0,0-.655,1.047c-.044.075-.1.144-.146.216C-564.37,86.44-564.67,86.559-564.951,86.449Z" transform="translate(-160.846 -143.427)" fill="#5f5c5c"/>
    <path id="Path_502" data-name="Path 502" d="M-749.646,86.511c-.225-.005-.19-.223-.2-.323-.057-.532-.2-1.048-.269-1.63a2.692,2.692,0,0,0-.348.784c-.115.293-.2.6-.306.9a.449.449,0,0,1-.157.274,1.12,1.12,0,0,0-.519,0c-.145-.061-.165-.207-.209-.328-.19-.522-.371-1.047-.576-1.631a3.7,3.7,0,0,0-.215.878c-.061.279-.086.567-.132.85a.347.347,0,0,1-.484.211.094.094,0,0,1-.035-.127c.313-.9.475-1.847.772-2.753a2.441,2.441,0,0,1,.656.022c.2.563.4,1.126.6,1.688.016.043.054.107.085.11.068.006.078-.065.1-.121.2-.537.4-1.072.6-1.608.224-.188.475-.085.718-.069a24.583,24.583,0,0,0,.626,2.7c.025.094.045.148-.061.181A1.766,1.766,0,0,0-749.646,86.511Z" transform="translate(-19.803 -143.42)" fill="#5f5c5c"/>
    <path id="Path_503" data-name="Path 503" d="M-527.037,85.256c.4-.526.744-1.083,1.1-1.636.218.007.443-.078.653.045q-.009,1.281-.018,2.562c0,.115.033.249-.134.288a1.665,1.665,0,0,0-.64,0h-.021c-.1-.073-.05-.181-.051-.271-.007-.405,0-.811-.006-1.217,0-.068.065-.193-.094-.193a11.994,11.994,0,0,0-1.005,1.481,1.515,1.515,0,0,1-.167.2.966.966,0,0,0-.469,0c-.137-.069-.069-.195-.071-.292-.011-.853-.014-1.707-.019-2.56a1.735,1.735,0,0,1,.781-.044c.111,0,.083.118.083.192,0,.4,0,.8.005,1.2C-527.109,85.089-527.188,85.212-527.037,85.256Z" transform="translate(-188.559 -143.423)" fill="#5f5c5c"/>
    <path id="Path_504" data-name="Path 504" d="M-577.475,86.525h-.078a1.711,1.711,0,0,0-.641,0c-.135-.054-.074-.172-.075-.26-.006-.486,0-.972,0-1.53a15.414,15.414,0,0,0-1.267,1.791,1.06,1.06,0,0,0-.512,0c-.077-.1-.043-.211-.043-.316,0-.855,0-1.71,0-2.565a2.066,2.066,0,0,1,.839.015v1.685a15.805,15.805,0,0,0,1.151-1.671c.192-.117.4-.04.6-.047.078,0,.082.074.082.134,0,.909.008,1.818-.006,2.726C-577.431,86.5-577.46,86.512-577.475,86.525Z" transform="translate(-149.489 -143.433)" fill="#5f5c5c"/>
    <path id="Path_505" data-name="Path 505" d="M-663.229,83.663q0,1.294-.006,2.588c0,.122.014.244-.146.279a1.509,1.509,0,0,0-.6,0c-.137-.047-.088-.164-.089-.255,0-.409,0-.819,0-1.228,0-.083-.012-.167-.023-.31a10.479,10.479,0,0,0-1.02,1.477c-.07.116-.118.252-.253.316a.966.966,0,0,0-.469,0l-.009,0c-.1-.047-.056-.139-.057-.21,0-.818,0-1.635-.007-2.453,0-.2.062-.251.254-.251.589,0,.589-.009.589.571,0,.3,0,.6,0,.9,0,.067-.047.168.08.186.408-.514.735-1.082,1.093-1.63A1.479,1.479,0,0,1-663.229,83.663Z" transform="translate(-85.169 -143.439)" fill="#5f5c5c"/>
    <path id="Path_506" data-name="Path 506" d="M-678.4,83.687c-.289.3-.572.605-.871.9-.125.121-.058.208,0,.31.288.47.577.94.864,1.412.056.092.116.2-.075.205a1.506,1.506,0,0,0-.6,0c-.309-.03-.315-.334-.449-.515a8.461,8.461,0,0,0-.556-.778c0,.337,0,.674,0,1.011,0,.121.019.246-.144.282a1.482,1.482,0,0,0-.59,0c-.157-.049-.093-.181-.094-.278,0-.767.009-1.535-.009-2.3-.006-.254.065-.343.311-.3a.781.781,0,0,0,.178-.01.454.454,0,0,1,.356.025v1.2a15.854,15.854,0,0,0,1.148-1.229C-678.748,83.637-678.552,83.5-678.4,83.687Z" transform="translate(-73.916 -143.418)" fill="#5f5c5c"/>
    <path id="Path_507" data-name="Path 507" d="M-540.47,83.665c-.28.285-.557.572-.839.855a.275.275,0,0,0-.039.41c.3.452.573.925.855,1.389.056.092.133.2-.067.206a1.74,1.74,0,0,0-.646,0c-.178-.01-.238-.154-.292-.281a5.471,5.471,0,0,0-.677-1.028c0,.339,0,.678,0,1.017,0,.114.041.251-.129.292a1.482,1.482,0,0,0-.59,0h-.07c-.094-.052-.051-.142-.051-.214,0-.814,0-1.627-.006-2.441,0-.21.052-.3.271-.235h.244c.12,0,.251-.083.355.045V84.9L-541,83.629C-540.825,83.632-540.642,83.565-540.47,83.665Z" transform="translate(-177.28 -143.433)" fill="#5f5c5c"/>
    <path id="Path_508" data-name="Path 508" d="M-731.147,83.658a15.434,15.434,0,0,0,.57,1.547c.017.046.018.131.1.13.1,0,.091-.1.112-.154.187-.5.367-1.006.55-1.51.136-.1.29-.048.435-.042.064,0,.077.075.046.137-.517,1.031-.942,2.1-1.385,3.167-.11.264-.219.53-.3.8-.069.223-.18.336-.423.28a1.036,1.036,0,0,0-.2,0,6.237,6.237,0,0,1,.475-.934,1.159,1.159,0,0,0-.008-1.3c-.308-.685-.586-1.384-.876-2.077.009-.08.067-.09.129-.085A3.091,3.091,0,0,1-731.147,83.658Z" transform="translate(-35.58 -143.434)" fill="#5f5c5c"/>
    <path id="Path_509" data-name="Path 509" d="M-694.129,83.413c.2.076.462.065.583.23.133.182-.127.377-.107.588-.107.111-.177.066-.227-.056-.028-.226-.208-.331-.363-.455a.637.637,0,0,0-.391-.006.464.464,0,0,0-.379.341,1.962,1.962,0,0,0-.086,1.337.794.794,0,0,0,1.265.466c.074-.047.14-.149.224-.062s0,.168-.038.248a.4.4,0,0,1-.3.259c-.192.035-.383.077-.574.116-.123-.056-.26.007-.383-.047-.693-.115-.979-.409-1.136-1.244a1.427,1.427,0,0,1,.813-1.592c.146-.049.3-.085.444-.127A2.336,2.336,0,0,1-694.129,83.413Z" transform="translate(-62.561 -143.269)" fill="#5f5c5c"/>
    <path id="Path_510" data-name="Path 510" d="M-624.154,86.375a1.241,1.241,0,0,1-1.154-1.153,1.674,1.674,0,0,1,0-.537,1.343,1.343,0,0,1,1.215-1.272,2.4,2.4,0,0,1,.658,0l.028.009c.206.056.455.059.595.212.159.175-.123.356-.086.556-.058.111-.129.155-.23.043a.767.767,0,0,0-.4-.514.594.594,0,0,0-.385.007c-.437.2-.482.588-.487,1a.556.556,0,0,0,0,.348c.02.831.593,1.167,1.314.776.063-.034.138-.145.229-.052.075.077-.021.144-.038.215-.047.2-.219.272-.388.323a4.259,4.259,0,0,1-.487.09C-623.895,86.364-624.031,86.425-624.154,86.375Z" transform="translate(-115.586 -143.269)" fill="#5f5c5c"/>
    <path id="Path_511" data-name="Path 511" d="M-604.029-65.954c-.245.55-.492,1.095-.73,1.643a.323.323,0,0,1-.3.186c-.475.03-.933.165-1.418.214,0-.377,0-.757,0-1.137,0-.094.013-.168.124-.2.751-.237,1.5-.48,2.25-.72C-604.091-65.976-604.069-65.964-604.029-65.954Z" transform="translate(-129.715 -31.307)" fill="#5f5c5c"/>
    <path id="Path_512" data-name="Path 512" d="M-611.053,84.025a1.249,1.249,0,0,0-.43.028l-.023-.365c.031-.051.082-.047.131-.047h2.325c.095,0,.224-.026.208.131-.01.1.092.28-.143.268a1.068,1.068,0,0,0-.4-.016c-.354-.047-.354-.047-.355.294,0,.651,0,1.3,0,1.953,0,.092.05.2-.049.277h-.079a1.658,1.658,0,0,0-.637,0c-.144-.046-.081-.166-.082-.253-.005-.658,0-1.315,0-1.973a.562.562,0,0,0-.029-.293A.722.722,0,0,0-611.053,84.025Z" transform="translate(-125.948 -143.458)" fill="#5f5c5c"/>
    <path id="Path_513" data-name="Path 513" d="M-622.561-37.535c.413-.163.827-.322,1.237-.49a1.24,1.24,0,0,1,.486-.1c.73,0,1.461.01,2.191,0,.23,0,.327.037.234.282a.685.685,0,0,0-.067.347c-.054.092-.144.05-.217.05q-1.812,0-3.624,0C-622.4-37.45-622.529-37.375-622.561-37.535Z" transform="translate(-117.661 -52.179)" fill="#5f5c5c"/>
    <path id="Path_514" data-name="Path 514" d="M-617.569-45.182c-.259-.191-.5-.4-.749-.606-.135-.114-.05-.143.027-.178.214-.1.436-.174.648-.271a.237.237,0,0,1,.222.014,3.929,3.929,0,0,0,2.15.305,2.941,2.941,0,0,1-.379.719A13.873,13.873,0,0,1-617.569-45.182Z" transform="translate(-120.789 -46.084)" fill="#5f5c5c"/>
    <path id="Path_515" data-name="Path 515" d="M-617.62-30.961l-1-1.162c.091-.094.165,0,.231.025a5.9,5.9,0,0,0,2,.18c.176,0,.252.032.145.212a.722.722,0,0,0-.065.165c-.113.391-.3.679-.78.591A1.264,1.264,0,0,1-617.62-30.961Z" transform="translate(-120.619 -56.65)" fill="#5f5c5c"/>
    <path id="Path_516" data-name="Path 516" d="M-606.337-95.711c-.017-.013-.033-.024-.048-.037-.079-.071.02-.107.04-.142.357-.618.722-1.232,1.085-1.847.015-.025.028-.051.043-.076.263-.442.26-.437.7-.169.144.088.18.143.046.281-.482.493-.953,1-1.427,1.5-.123.13-.24.266-.36.4C-606.286-95.773-606.311-95.742-606.337-95.711Z" transform="translate(-129.765 -7.173)" fill="#5f5c5c"/>
    <path id="Path_517" data-name="Path 517" d="M-635.339,24.964c-2.132,0-4.263,0-6.4-.007-.226,0-.281.057-.28.281.01,1.721.005,3.443.005,5.164s0,3.443,0,5.164c0,.2.031.276.254.273.971-.013,1.941-.012,2.912,0,.2,0,.252-.056.25-.251-.01-.941,0-1.882-.01-2.822,0-.243.049-.322.307-.318.991.016,1.982,0,2.972.008a1.363,1.363,0,0,0,1.478-1.481q.012-2.267,0-4.534A1.347,1.347,0,0,0-635.339,24.964Zm-1.915,4.585c0,.15-.056.186-.194.183-.32-.008-.641-.011-.96,0-.17.006-.2-.07-.195-.215.008-.27,0-.54,0-.81,0-.25.009-.5,0-.75-.009-.183.031-.273.242-.26.3.018.6.011.9,0,.151,0,.211.036.208.2C-637.262,28.449-637.261,29-637.254,29.55Z" transform="translate(-103.079 -99.469)" fill="#5f5c5c"/>
    <path id="Path_518" data-name="Path 518" d="M-593.726,84.624a1.3,1.3,0,0,0-.914-1.213,1.173,1.173,0,0,0-.478,0,.858.858,0,0,0-.49.307c-.11-.312-.365-.29-.62-.268l-.016,0-.014,0c-.235-.04-.279.072-.278.287.009,1.3,0,2.6.006,3.9,0,.077-.029.161.038.228a2.529,2.529,0,0,1,.5-.014c.282.047.312-.088.306-.316-.012-.465,0-.93,0-1.414.625.373,1.086.374,1.462.031a1.753,1.753,0,0,0,.5-1.11A1.018,1.018,0,0,0-593.726,84.624Zm-1.008,1.012A.491.491,0,0,1-595.2,86a.444.444,0,0,1-.421-.367,2.338,2.338,0,0,1,.033-1.5.46.46,0,0,1,.471-.348c.252.013.351.187.416.4a3.416,3.416,0,0,1,.083.693A2.168,2.168,0,0,1-594.734,85.635Z" transform="translate(-137.17 -143.267)" fill="#5f5c5c"/>
    <path id="Path_519" data-name="Path 519" d="M-648.957,84.9c.439.01.88,0,1.319,0,.163,0,.235-.012.221-.233a1.232,1.232,0,0,0-.924-1.261,1.885,1.885,0,0,0-.6,0,1.221,1.221,0,0,0-1.094,1.094,2.573,2.573,0,0,0,0,.718,1.314,1.314,0,0,0,1.15,1.153c.123.048.259-.012.381.044h.017c.1-.053.219,0,.321-.046.232-.092.514-.117.59-.425.013-.053.032-.143.009-.159a.182.182,0,0,0-.191.017c-.773.416-1.232.185-1.391-.669C-649.18,84.934-649.144,84.9-648.957,84.9Zm-.137-.8a.651.651,0,0,1,.209-.355.3.3,0,0,1,.471.045,1.286,1.286,0,0,1,.189.711c.007.1-.057.112-.134.111-.12,0-.239,0-.359,0C-649.224,84.617-649.241,84.593-649.094,84.1Z" transform="translate(-97.052 -143.267)" fill="#5f5c5c"/>
  </g>
</svg>
