<svg xmlns="http://www.w3.org/2000/svg" width="30" height="405" viewBox="0 0 30 405">
  <g id="Group_282" data-name="Group 282" transform="translate(2305 -2561)">
    <path id="Subtraction_7" data-name="Subtraction 7" d="M30,403.5H0v-26H4.5V387a10.012,10.012,0,0,0,10,10h1a10.012,10.012,0,0,0,10-10v-9.5H30v26Z" transform="translate(-2305 2562.499)" fill="#fff"/>
    <path id="Subtraction_5" data-name="Subtraction 5" d="M68.751,482h-1a10.012,10.012,0,0,1-10-10V85h21V472A10.012,10.012,0,0,1,68.751,482Z" transform="translate(-2358.251 2477.5)" fill="none" stroke="#2d292a" stroke-width="2"/>
    <line id="Line_171" data-name="Line 171" x2="4" transform="translate(-2283.5 2923.5)" fill="none" stroke="#2d292a" stroke-width="2"/>
    <line id="Line_172" data-name="Line 172" x2="4" transform="translate(-2283.5 2887.5)" fill="none" stroke="#2d292a" stroke-width="2"/>
    <line id="Line_173" data-name="Line 173" x2="4" transform="translate(-2283.5 2851.5)" fill="none" stroke="#2d292a" stroke-width="2"/>
    <line id="Line_174" data-name="Line 174" x2="4" transform="translate(-2283.5 2815.5)" fill="none" stroke="#2d292a" stroke-width="2"/>
    <line id="Line_175" data-name="Line 175" x2="4" transform="translate(-2283.5 2779.5)" fill="none" stroke="#2d292a" stroke-width="2"/>
    <line id="Line_176" data-name="Line 176" x2="4" transform="translate(-2283.5 2742.5)" fill="none" stroke="#2d292a" stroke-width="2"/>
    <line id="Line_177" data-name="Line 177" x2="4" transform="translate(-2283.5 2706.5)" fill="none" stroke="#2d292a" stroke-width="2"/>
    <line id="Line_178" data-name="Line 178" x2="4" transform="translate(-2283.5 2670.5)" fill="none" stroke="#2d292a" stroke-width="2"/>
    <line id="Line_179" data-name="Line 179" x2="4" transform="translate(-2283.5 2634.5)" fill="none" stroke="#2d292a" stroke-width="2"/>
    <line id="Line_180" data-name="Line 180" x2="4" transform="translate(-2283.5 2598.5)" fill="none" stroke="#2d292a" stroke-width="2"/>
    <rect id="Rectangle_256" data-name="Rectangle 256" width="28" height="4" rx="2" transform="translate(-2304 2562)" fill="#fff" stroke="#2d292a" stroke-width="2"/>
  </g>
</svg>
