<svg xmlns="http://www.w3.org/2000/svg" width="57.374" height="21.245" viewBox="0 0 57.374 21.245">
  <g id="Group_331" data-name="Group 331" transform="translate(2399.214 -746.18)">
    <path id="Path_520" data-name="Path 520" d="M-2188.42,784.942c.568.823,1.11,1.61,1.654,2.394.6.859,1.2,1.716,1.793,2.575.041.059.132.115.086.2s-.142.037-.216.048a.916.916,0,0,1-1.1-.59,48.247,48.247,0,0,0-2.865-4.382c-.085-.127-.169-.256-.267-.406a9.838,9.838,0,0,0,1.076-.21,1.729,1.729,0,0,0,1.388-1.9,1.743,1.743,0,0,0-1.583-1.6,6.868,6.868,0,0,0-1.7-.023c-.224.013-.2.162-.2.306q0,1.6,0,3.207,0,2.555,0,5.111c0,.483,0,.472-.506.487-.253.008-.415-.01-.3-.326a.7.7,0,0,0,0-.232q0-3.892,0-7.783c0-.223,0-.446-.008-.668-.024-.464-.027-.472.456-.462a23.3,23.3,0,0,1,2.736.056,1.945,1.945,0,0,1,1.873,1.945,1.915,1.915,0,0,1-.984,1.709A4.535,4.535,0,0,1-2188.42,784.942Z" transform="translate(-172.313 -28.578)" fill="#5f5c5c"/>
    <path id="Path_521" data-name="Path 521" d="M-2094.207,784.525a1.665,1.665,0,0,1,.019.579,21.239,21.239,0,0,0-2.955-.09c-.158-.006-.178.084-.178.211,0,1.269-.008,2.539.008,3.808a.842.842,0,0,0,.895.88c.946.013,1.893.009,2.839,0a1.81,1.81,0,0,0,1.024-.368c.013.573-.074.664-.624.664-1.6,0-3.207,0-4.811,0-.257,0-.333-.038-.232-.309a1.755,1.755,0,0,0,.054-.594q0-3.908,0-7.817a2.793,2.793,0,0,0-.015-.3c-.048-.452-.049-.452.434-.452h3.908a.366.366,0,0,1,.333.543c-.046.085-.109.049-.169.029a8.169,8.169,0,0,0-3.145-.183c-.467.032-.482.074-.483.525,0,.9.007,1.8-.005,2.706,0,.249.043.356.326.346.7-.024,1.4-.009,2.1-.015A1.012,1.012,0,0,0-2094.207,784.525Z" transform="translate(-249.286 -28.627)" fill="#5f5c5c"/>
    <path id="Path_522" data-name="Path 522" d="M-2151.116,780.728c.089,0,.178,0,.267,0,.154-.009.212.023.179.207a4.5,4.5,0,0,0-.044.764q0,3.955,0,7.909c0,.185.094.447,0,.537-.136.139-.4.026-.607.054-.25.033-.26-.067-.25-.293.028-.633.01-1.268.01-1.9q0-3.2,0-6.407c0-.133,0-.267-.008-.4C-2151.592,780.728-2151.593,780.728-2151.116,780.728Z" transform="translate(-205.128 -28.615)" fill="#5f5c5c"/>
    <path id="Path_523" data-name="Path 523" d="M-2251.415,777.713a5.287,5.287,0,0,0-5.312,5.234,5.216,5.216,0,0,0,5.233,5.184,5.364,5.364,0,0,0,5.354-5.182A5.282,5.282,0,0,0-2251.415,777.713Zm1.195,9.517a3.825,3.825,0,0,1-5.09-1.485,4.482,4.482,0,0,1-.4-3.493,5.245,5.245,0,0,1,3.572-3.834c2.718-.827,5.136,1.02,5.137,4.214A5.347,5.347,0,0,1-2250.22,787.23Z" transform="translate(-118.026 -26.12)" fill="#5f5c5c"/>
    <path id="Path_524" data-name="Path 524" d="M-2132.4,785.406a4.994,4.994,0,0,0-1.648-.568,3.454,3.454,0,0,0,1.344-.749,1.786,1.786,0,0,0-.406-2.967,3.407,3.407,0,0,0-1.6-.4c-.724-.006-1.448,0-2.172-.006-.253,0-.449-.01-.3.34a1,1,0,0,1,.02.365q0,4.01,0,8.019a1.3,1.3,0,0,1-.061.527c-.089.206.025.224.184.221.824-.016,1.649.043,2.471-.038a4.2,4.2,0,0,0,2.5-.986A2.316,2.316,0,0,0-2132.4,785.406Zm-3.627-4.256a5.785,5.785,0,0,1,1.53-.042c.682.093,1.28.335,1.462,1.066a1.855,1.855,0,0,1-.65,2.01,3.255,3.255,0,0,1-2.478.537c-.18-.016-.163-.15-.163-.271q0-.751,0-1.5h0c0-.479.014-.958-.006-1.436C-2136.345,781.267-2136.256,781.18-2136.024,781.15Zm2.287,8.506a3.648,3.648,0,0,1-1.78.158.86.86,0,0,1-.829-.975c0-.568,0-1.136,0-1.7,0-.6.008-1.2,0-1.8,0-.222.05-.317.3-.313a7.47,7.47,0,0,1,2.344.272c1.055.363,1.527.934,1.527,1.824A2.409,2.409,0,0,1-2133.737,789.656Z" transform="translate(-216.986 -28.607)" fill="#5f5c5c"/>
    <path id="Path_525" data-name="Path 525" d="M-2388.664,746.18a10.63,10.63,0,0,0-10.55,10.621,10.623,10.623,0,0,0,10.667,10.624,10.617,10.617,0,0,0,10.561-10.68A10.624,10.624,0,0,0-2388.664,746.18Zm9.367,6.169a.87.87,0,0,0-.788-.106c.1.024.169.038.236.057a.771.771,0,0,1,.351.191.5.5,0,0,1-.09.823,1.04,1.04,0,0,1-1.036,0,.472.472,0,0,1-.119-.706c.1-.152.221-.291.326-.44a1.823,1.823,0,0,0,.389-1.072A8.061,8.061,0,0,1-2379.3,752.349Zm-1.028-1.355a.791.791,0,0,1-.078.5,2.879,2.879,0,0,1-.945,1.145,4.079,4.079,0,0,1-.386.252c-.06.036-.094.062-.035.129a2.547,2.547,0,0,0,2.112.964,1.386,1.386,0,0,0,.656-.251.775.775,0,0,1-.305.361,1.459,1.459,0,0,1-1.155.16,3.464,3.464,0,0,1-1.869-1.158c-.085-.095,0-.094.057-.112a2.98,2.98,0,0,0,1.887-1.8C-2380.362,751.12-2380.345,751.057-2380.324,750.994Zm-1.133-1.091a.93.93,0,0,1,.526,1.023,1.688,1.688,0,0,1-.644,1,3.193,3.193,0,0,1-1.918.737c-.034,0-.067,0-.1.006-.008,0-.015.01-.027.019.135.094.271.183.4.281a2.171,2.171,0,0,1,.673.778,1,1,0,0,1,.047.845c-.013-.109-.019-.218-.039-.326a1.662,1.662,0,0,0-.647-.993,6.551,6.551,0,0,0-1.449-.8,4.9,4.9,0,0,1-.757-.369.65.65,0,0,1-.269-.237.84.84,0,0,1,.291.169l.006.005a2.645,2.645,0,0,0,2,.21,3.731,3.731,0,0,0,1.723-1.061.727.727,0,0,0,.11-.993.5.5,0,0,0-.817.014.414.414,0,0,0-.031.438.335.335,0,0,0,.359.21.167.167,0,0,1-.177.037.458.458,0,0,1-.326-.617A.793.793,0,0,1-2381.458,749.9Zm-3.11,3.081a5.943,5.943,0,0,1-.919.128.281.281,0,0,1-.3-.177,4.645,4.645,0,0,1-.272-.88C-2385.555,752.36-2385.17,752.845-2384.568,752.984Zm2.586-3.545a1.638,1.638,0,0,0-1-.822A.788.788,0,0,1-2381.982,749.439Zm-6.6-1.891a.684.684,0,0,1,.347-.291c.179-.067.356-.143.533-.215l.246-.133c-.044.105-.084.154-.16.162a1.994,1.994,0,0,1-.61.372.442.442,0,0,0-.281.341,1.074,1.074,0,0,0,.3,1.045c.066.066.1.059.156-.013.153-.2.306-.408.445-.622.028-.043.054-.106.12-.081.118.044.14-.024.158-.115a4.578,4.578,0,0,0,.126-1.331c-.012-.121.065-.082.118-.074a10.14,10.14,0,0,1,2.308.623,10.419,10.419,0,0,1,1.807.942c.02.013.037.029.076.059a1.84,1.84,0,0,0-1.747,1.057,1.562,1.562,0,0,0-.054,1.176c.025-.172.019-.346.048-.518a1.362,1.362,0,0,1,.349-.791,1.018,1.018,0,0,1,1.375.045.876.876,0,0,1,.195.591,1.843,1.843,0,0,1-2.389,1.853,3.131,3.131,0,0,1-1.369-.772.714.714,0,0,1-.213-.352c-.039-.153-.1-.3-.146-.453a.494.494,0,0,0-.338-.328,5.668,5.668,0,0,0-.617-.149A1.331,1.331,0,0,1-2388.582,747.548Zm-1.537-.729a2,2,0,0,1,1.352-.134c-.028.079-.091.089-.137.119a2.151,2.151,0,0,0-.9,1.091,1.1,1.1,0,0,0,.446,1.364c.334.218.691.4,1.03.611a2.034,2.034,0,0,1,.93,1.047,2.417,2.417,0,0,1,.034,1.227c-.062.362-.206.7-.29,1.057a1.916,1.916,0,0,0,1.168,2.37,8.743,8.743,0,0,0,1.686.547,6.139,6.139,0,0,1,1.562.547,2.535,2.535,0,0,1,.6.448,1.647,1.647,0,0,1,.419,1.577c-.035-.03-.029-.07-.03-.106a1.98,1.98,0,0,0-1.356-1.892,7.123,7.123,0,0,0-1.421-.376,5.923,5.923,0,0,1-2.224-.844,2.286,2.286,0,0,1-.881-2.862,8.271,8.271,0,0,0,.354-.868,1.47,1.47,0,0,0-.028-1.085,1.441,1.441,0,0,0-.5-.534,5.672,5.672,0,0,0-.688-.395c-.2-.1-.4-.217-.587-.339a1.22,1.22,0,0,1-.468-1.45,2.21,2.21,0,0,1,.794-1.039c.049-.037.1-.073.178-.131-.863.129-1.222.5-1.431,1.434A1.158,1.158,0,0,1-2390.119,746.819Zm-.2,7.346c.121.352.319.668.455,1.013a2.53,2.53,0,0,1,.213,1.253,1.951,1.951,0,0,1-.848,1.37,3.085,3.085,0,0,1-2.149.592,1.219,1.219,0,0,1-.8-.356.622.622,0,0,1-.176-.318,1.487,1.487,0,0,0,1.748.418,2.261,2.261,0,0,0,.717-.394,3.134,3.134,0,0,0,.942-1.222,2.053,2.053,0,0,0-.017-1.563c-.1-.272-.214-.536-.313-.807a2.37,2.37,0,0,1-.107-1.265,2.232,2.232,0,0,1,.514-.955c.151-.194.315-.377.447-.584a.524.524,0,0,0-.182-.832,2.3,2.3,0,0,0-.93-.292,9.772,9.772,0,0,0-1.64-.064.884.884,0,0,1,.345-.065,5.9,5.9,0,0,1,1.654.043,1.956,1.956,0,0,1,.787.309.632.632,0,0,1,.2.959,5.561,5.561,0,0,1-.514.66A2.021,2.021,0,0,0-2390.323,754.165Zm-.937-3.561a10.267,10.267,0,0,1-.862,2.564c-.006.011-.019.018-.038.036-.037-.068-.072-.129-.1-.192a12.307,12.307,0,0,0-1-1.5,1.873,1.873,0,0,1-.289-.562.158.158,0,0,1,.1-.217,2.582,2.582,0,0,1,.895-.208,7.662,7.662,0,0,1,1.182-.031C-2391.3,750.5-2391.237,750.5-2391.259,750.6Zm-6.248,1.005a10.154,10.154,0,0,1,6.506-4.834,2.512,2.512,0,0,0-.462,1.481.92.92,0,0,1-.027.156c-.064.253-.213.319-.44.2-.327-.175-.406-.162-.658.115a.748.748,0,0,1-.581.3.384.384,0,0,1-.368-.276.464.464,0,0,1,.063-.5c.093-.106.188-.062.271.032,0-.181-.124-.264-.279-.177a.545.545,0,0,0-.289.527.989.989,0,0,0,.252.617.622.622,0,0,0,.759.171c.145-.063.282-.147.426-.214.192-.09.264-.071.4.1a.483.483,0,0,0,.331.209.354.354,0,0,0,.4-.194c.044-.075.08-.154.129-.225a.226.226,0,0,1,.291-.093c.116.056.082.175.046.268a.691.691,0,0,1-.52.434,8.286,8.286,0,0,1-1.463.14,12.409,12.409,0,0,0-2.277.261,3.064,3.064,0,0,0-1.483.732,2.837,2.837,0,0,0-.8,1.764,9.286,9.286,0,0,0-.029,1.168,1.92,1.92,0,0,1-.023.431c-.053.24-.227.31-.425.167-.035-.025-.068-.053-.105-.083a.349.349,0,0,0,.259.289.385.385,0,0,0,.386-.143.9.9,0,0,0,.177-.406c.086-.391.1-.792.163-1.187a2.962,2.962,0,0,1,.737-1.646,1.916,1.916,0,0,1,1.445-.577c.012,0,.024.011.053.026a2.464,2.464,0,0,0-.713.359,2.11,2.11,0,0,0-.773,1.22,3.058,3.058,0,0,0,.357,2.39,2.026,2.026,0,0,0,2.137.928.97.97,0,0,0,.546-.33.579.579,0,0,0,.135-.4c-.045,0-.051.033-.065.055a1.079,1.079,0,0,1-1.648.275,1.714,1.714,0,0,1-.614-1.05,2.622,2.622,0,0,1,.914-2.745c.148-.121.223-.12.387-.009a1.416,1.416,0,0,1,.4.453,11.457,11.457,0,0,1,.665,1.408,5.482,5.482,0,0,0,.346.7,1.434,1.434,0,0,0,.133.189c.192.222.358.228.557.012a3.072,3.072,0,0,0,.5-.839c.073-.161.139-.326.223-.524a2.458,2.458,0,0,1,.111.648,7.961,7.961,0,0,1-.46,3.307,2.567,2.567,0,0,1-.614.984.8.8,0,0,1-1.16-.016.545.545,0,0,1-.087-.131.3.3,0,0,1,.037-.351.32.32,0,0,1,.362-.058.647.647,0,0,1,.277.222.565.565,0,0,0-.71-.491.781.781,0,0,0-.6.683.794.794,0,0,0,.41.81c.033.018.068.033.125.061a.765.765,0,0,1-.273.063,3.042,3.042,0,0,1-1.884-.348.747.747,0,0,1-.412-.94.657.657,0,0,1,.717-.457.545.545,0,0,1,.4.317,2.189,2.189,0,0,1,.148.4.792.792,0,0,0-.662-1.031,1.563,1.563,0,0,0-1.253.441,3.148,3.148,0,0,0-.774,1.067c-.024.051-.024.124-.126.078a.805.805,0,0,0-1.184.4A10.051,10.051,0,0,1-2397.508,751.61Zm1.891,2.4a1.964,1.964,0,0,1,.1.323c.01.023.009.05-.02.059s-.042-.018-.05-.039a.372.372,0,0,1-.058-.2,3.667,3.667,0,0,1-.177-1.646,1.716,1.716,0,0,1,.817-1.294.224.224,0,0,1,.146-.055A3.053,3.053,0,0,0-2395.616,754.007Zm-.582,9.792a3.064,3.064,0,0,1-.32-.366l-.289-.38h0a10.334,10.334,0,0,1-1.291-2.227,10.563,10.563,0,0,1-.522-1.573c-.021-.083-.038-.167-.064-.279a.725.725,0,0,0,.483.173c0-.055-.05-.049-.078-.066a.455.455,0,0,1-.24-.309.266.266,0,0,1,.156-.308.243.243,0,0,1,.311.109,1.133,1.133,0,0,1,.154.492c.047.349.027.7.074,1.051a7,7,0,0,0,.825,2.462c.083.15.169.3.254.447h0c.119.092.159.243.258.35l.322.4Zm4.6,2.69a1.555,1.555,0,0,1-.492-.257,5.757,5.757,0,0,1-.905-.8,4.593,4.593,0,0,0-1.486-1.05,5.4,5.4,0,0,1-2.841-4.812,5.1,5.1,0,0,1,.769-2.348c.007-.012.016-.024.026-.038.01.014.019.021.018.025a1.118,1.118,0,0,0,.6,1.246,3.538,3.538,0,0,0,1.656.5,7.771,7.771,0,0,0,2.463-.219l.1-.018a.682.682,0,0,1-.243.11c-.082.029-.166.052-.249.075a6.47,6.47,0,0,1-2.843.194,2.57,2.57,0,0,1-1.461-.7,4.683,4.683,0,0,0,.1,3.138c0-.048,0-.1,0-.143a2.484,2.484,0,0,1,.457-1.578,1,1,0,0,1,1.324-.28.812.812,0,0,1,.373.843.716.716,0,0,1-.628.535.529.529,0,0,1-.543-.35,1.414,1.414,0,0,0,.225.156.508.508,0,0,0,.564-.085.5.5,0,0,0,.112-.56.461.461,0,0,0-.437-.323.712.712,0,0,0-.679.359,2.69,2.69,0,0,0-.355,1.708,2.689,2.689,0,0,0,1.429,2.189,6.3,6.3,0,0,1,1.166.744c.306.28.581.589.864.891a6.462,6.462,0,0,0,.859.769.637.637,0,0,0,.114.055h0a.231.231,0,0,1,.168.079A.405.405,0,0,1-2391.6,766.489Zm.449-.326a4.152,4.152,0,0,1-.958-.931,5.563,5.563,0,0,0-1.562-1.263c-.19-.1-.377-.214-.556-.334a1.368,1.368,0,0,1-.482-1.824,4.043,4.043,0,0,1,1.042-1.222,24.071,24.071,0,0,1,2.514-1.79,18.568,18.568,0,0,0,1.912-1.368,3.04,3.04,0,0,0,.6-.661.892.892,0,0,0,.078-.841,2.743,2.743,0,0,0-.451-.718,4.453,4.453,0,0,1-.63-.946,1.9,1.9,0,0,1,.214-1.992c.154-.214.329-.414.495-.62a1.664,1.664,0,0,0,.276-.438.542.542,0,0,0-.148-.643,2.165,2.165,0,0,0-.529-.321,2.738,2.738,0,0,1-.791-.5.813.813,0,0,1-.251-.551,1.653,1.653,0,0,0,.916.765,4.108,4.108,0,0,1,.791.445,1.032,1.032,0,0,1,.262,1.309,5.59,5.59,0,0,1-.7.926,1.512,1.512,0,0,0-.372,1.352,2.009,2.009,0,0,0,.359.686c.183.254.371.5.553.757a2.268,2.268,0,0,1,.227.417,1.069,1.069,0,0,1-.184,1.209,6.481,6.481,0,0,1-1.255,1.079c-.841.585-1.695,1.152-2.535,1.738a9.323,9.323,0,0,0-1.819,1.549,2.289,2.289,0,0,0-.37.582,1.065,1.065,0,0,0,.254,1.243,3.373,3.373,0,0,0,.685.476,3.819,3.819,0,0,1,.86.585,5.381,5.381,0,0,1-.17-.825,3.407,3.407,0,0,1,.5-2.321c.069-.1.153-.2.23-.3h0a.971.971,0,0,1,.314-.322l.062-.054h0c.028-.054.08-.076.144-.119a.214.214,0,0,1-.115.177,4.115,4.115,0,0,0-.477,3.536,4.463,4.463,0,0,0,1.126,1.97c.04.04.072.087.124.151A.444.444,0,0,1-2391.153,766.162Zm3.276.872a1.638,1.638,0,0,1-.884.006,3.51,3.51,0,0,1-2.1-1.473,4.785,4.785,0,0,1,.517-6.189,10.782,10.782,0,0,1,1.375-1.118,6.23,6.23,0,0,0,.917-.767,1.347,1.347,0,0,0,.189-1.791c-.1-.167-.219-.321-.329-.481l-.139-.15h0a.363.363,0,0,1-.154-.18.232.232,0,0,1,.182.119c.044.053.119.077.139.152a5.913,5.913,0,0,1,.493.538,1.391,1.391,0,0,1-.107,1.959,10.171,10.171,0,0,1-1.146,1.009,5.876,5.876,0,0,0-1.905,2.632,4.651,4.651,0,0,0,.629,4.415,2.653,2.653,0,0,0,1.353,1.034,1.425,1.425,0,0,0,.74.061.456.456,0,0,0,.412-.446c0-.16-.072-.268-.188-.289a.275.275,0,0,0-.3.177,1.354,1.354,0,0,0-.067.176.372.372,0,0,1,.2-.511.478.478,0,0,1,.665.4A.665.665,0,0,1-2387.877,767.034Zm-.317-5.61a4.241,4.241,0,0,1,.386,1.413,3.053,3.053,0,0,1-.156,1.137,1.19,1.19,0,0,0-.043.153.265.265,0,0,0,.233.358.805.805,0,0,1,.614.5,5.186,5.186,0,0,1-2.269-.845,2.076,2.076,0,0,1-.85-2.3,4.944,4.944,0,0,1,.9-1.825,13.935,13.935,0,0,1,1.126-1.332c.021-.023.038-.058.088-.052a1.433,1.433,0,0,1-.077.446,7.746,7.746,0,0,0-.2.841A2.748,2.748,0,0,0-2388.194,761.424Zm5.615,3.7a9.377,9.377,0,0,1-3.892,1.739c-.158.03-.159.028-.114-.125a1.019,1.019,0,0,0-.381-1.151,1.1,1.1,0,0,0-1.21-.032.685.685,0,0,0-.316.707.541.541,0,0,1,.073-.669,1.347,1.347,0,0,1,1.45-.365,1.219,1.219,0,0,1,.8,1.19c0,.109.024.121.117.1a9,9,0,0,0,2.867-1.29c.023-.016.042-.036.077-.067-.791-.237-1.22-.732-1.048-1.191.3.764.629.987,1.623,1.1C-2382.522,765.1-2382.56,765.1-2382.58,765.119Zm.806-.754a1.394,1.394,0,0,1-1.659.188.538.538,0,0,1-.314-.421.3.3,0,0,1,.311-.352.714.714,0,0,1,.47.156c.029.021.047.062.106.054a.816.816,0,0,0-.664-.511.753.753,0,0,0-.787.308.716.716,0,0,0-.046.827,1.606,1.606,0,0,0,.175.228c.053.061.061.092-.034.107a10.151,10.151,0,0,1-1.624.127.3.3,0,0,1-.16-.056,2.259,2.259,0,0,1-.891-1.157,7.521,7.521,0,0,1-.46-2.341,17.477,17.477,0,0,1,.025-2.409,2,2,0,0,1,.112-.491,2.569,2.569,0,0,0,.154-1.092.156.156,0,0,1,.051-.141q.148-.138.289-.283c.058-.061.086-.047.121.024a3.74,3.74,0,0,0,1.889,1.748c.228.1.452.213.671.335a.651.651,0,0,1,.031,1.154,1.24,1.24,0,0,1-1.142.155.518.518,0,0,1-.148-.882.416.416,0,0,1,.474-.041,1.262,1.262,0,0,1,.357.276.666.666,0,0,0-.853-.5,1.051,1.051,0,0,0-.588.546,2.046,2.046,0,0,0,.327,2.311,2.578,2.578,0,0,0,3.4.38,4.042,4.042,0,0,0,.907-.839c.074-.092.1-.075.13.025A2.6,2.6,0,0,1-2381.774,764.366Zm1.385-2.556a10.6,10.6,0,0,0-1.12-3.63c.08.351.17.7.236,1.053a2.757,2.757,0,0,1-2.079,3.133,2.1,2.1,0,0,1-1.564-.213,1.386,1.386,0,0,1-.7-1.2c0-.11.021-.124.119-.074a2.349,2.349,0,0,0,1.165.285,1.538,1.538,0,0,0,1.46-1.631.932.932,0,0,0-.424-.735,3.619,3.619,0,0,0-.879-.4,3.365,3.365,0,0,1-1.194-.623,2.342,2.342,0,0,1-.544-.669l-.107-.184a.5.5,0,0,1-.107-.285.167.167,0,0,1,.1.146c.046.1.141.176.176.286l.087.116a.809.809,0,0,1,.229.232,3.7,3.7,0,0,0,1.374.741,5.054,5.054,0,0,1,.8.323,1.314,1.314,0,0,1,.551,1.971,1.8,1.8,0,0,1-2.328.716c-.1-.04-.189-.083-.3-.133a.639.639,0,0,0,.2.382,1.63,1.63,0,0,0,1.331.432,2.317,2.317,0,0,0,2.017-1.606,3.836,3.836,0,0,0,.159-2.381c-.01-.042-.019-.084-.028-.126,0,0,0-.008.013-.023a1.424,1.424,0,0,1,.367.353,4.243,4.243,0,0,1,.8,1.742,8.323,8.323,0,0,1,.207,1.948A.093.093,0,0,1-2380.389,761.81Zm.761-3.685c.06.618.14,1.233.2,1.851a3.837,3.837,0,0,1-.013,1.036.851.851,0,0,1-.1.307c-.061-.279-.11-.531-.172-.781a7.07,7.07,0,0,0-1.4-2.9,6.353,6.353,0,0,0-2.5-1.759c-.675-.282-1.38-.483-2.061-.749a3.173,3.173,0,0,1-.989-.554,1.337,1.337,0,0,1-.459-.949,2.674,2.674,0,0,1,.256-1.332c.02-.042.029-.109.079-.109s.051.072.065.113c.142.414.276.831.422,1.243.156.442.2.462.652.312.333-.112.653-.258.977-.393a1.751,1.751,0,0,1,.415-.119.885.885,0,0,1,.884.37,1.715,1.715,0,0,1,.339,1.264.664.664,0,0,1-.077.247.319.319,0,0,1-.58.033.63.63,0,0,1-.1-.329.265.265,0,0,0-.051.357.95.95,0,0,0,.846.56,1.125,1.125,0,0,0,1.085-.655,1.51,1.51,0,0,0,.2-1.1c.176.105.318.194.464.277a2.457,2.457,0,0,0,1.338.341,1.239,1.239,0,0,0,1.209-.772,10.367,10.367,0,0,1,.4,2.735.628.628,0,0,0-.573-.2.8.8,0,0,0-.695.607A2.7,2.7,0,0,0-2379.628,758.125Zm1.31-.529a10.808,10.808,0,0,1-.336,1.943c-.009.035-.006.078-.061.111-.009-.115-.016-.221-.024-.327-.044-.552-.171-1.091-.253-1.637a1.786,1.786,0,0,1-.021-.687.31.31,0,0,1,.329-.277.361.361,0,0,1,.321.3.312.312,0,0,1-.222.368c-.008,0-.014.012-.021.019-.039.123.079.016.092.063l.013-.006C-2378.3,757.388-2378.3,757.388-2378.318,757.6Z" transform="translate(0 0)" fill="#5f5c5c"/>
  </g>
</svg>
