<svg id="wella" xmlns="http://www.w3.org/2000/svg" width="52.575" height="33.14" viewBox="0 0 52.575 33.14">
  <g id="Group_323" data-name="Group 323" transform="translate(1.075 29.405)">
    <path id="Path_407" data-name="Path 407" d="M1233.708-703.922h-1.246v1.336h-.4v-3.592h1.648c1.059,0,1.5.442,1.5,1.135C1235.207-704.375,1234.761-703.922,1233.708-703.922Zm0-1.9h-1.246v1.56h1.246c.71,0,1.089-.235,1.089-.781S1234.426-705.822,1233.708-705.822Z" transform="translate(-1232.06 706.244)" fill="#5f5c5c"/>
    <path id="Path_408" data-name="Path 408" d="M1260.324-704.181l1.307,1.594h-.5l-1.174-1.511h-1.272v1.511h-.4v-3.592h1.7c.929,0,1.343.4,1.343,1.011A.965.965,0,0,1,1260.324-704.181Zm-.353-1.641h-1.29v1.4h1.236c.7,0,.992-.268.992-.723C1260.909-705.57,1260.636-705.822,1259.971-705.822Z" transform="translate(-1254.095 706.244)" fill="#5f5c5c"/>
    <path id="Path_409" data-name="Path 409" d="M1284.956-702.83c-1.433,0-1.978-.684-1.978-1.873s.546-1.857,1.978-1.857,1.969.669,1.969,1.857S1286.389-702.83,1284.956-702.83Zm0-3.357c-1.117,0-1.557.465-1.557,1.484s.44,1.491,1.557,1.491,1.549-.48,1.549-1.491S1286.079-706.187,1284.956-706.187Z" transform="translate(-1274.853 706.565)" fill="#5f5c5c"/>
    <path id="Path_410" data-name="Path 410" d="M1315.344-705.783v1.2h2.151v.36h-2.151v1.637h-.4v-3.592h2.942l.007.395Z" transform="translate(-1301.717 706.244)" fill="#5f5c5c"/>
    <path id="Path_411" data-name="Path 411" d="M1342.75-702.958l-.015.372h-3.062v-3.592h2.948l.012.38h-2.562v1.179h2.215v.326h-2.215v1.336Z" transform="translate(-1322.501 706.244)" fill="#5f5c5c"/>
    <path id="Path_412" data-name="Path 412" d="M1365.141-702.855a2.891,2.891,0,0,1-1.4-.34l.063-.377a2.636,2.636,0,0,0,1.343.35c.759,0,1.152-.333,1.152-.73,0-.939-2.513-.312-2.513-1.608,0-.5.414-1.03,1.477-1.03a3.242,3.242,0,0,1,1.276.239l-.064.36a3.346,3.346,0,0,0-1.21-.23c-.805,0-1.1.36-1.1.637,0,.9,2.515.254,2.515,1.6C1366.687-703.363,1366.163-702.855,1365.141-702.855Z" transform="translate(-1342.731 706.59)" fill="#5f5c5c"/>
    <path id="Path_413" data-name="Path 413" d="M1387.86-702.855a2.893,2.893,0,0,1-1.4-.34l.061-.377a2.644,2.644,0,0,0,1.345.35c.757,0,1.151-.333,1.151-.73,0-.939-2.514-.312-2.514-1.608,0-.5.415-1.03,1.478-1.03a3.239,3.239,0,0,1,1.277.239l-.062.36a3.358,3.358,0,0,0-1.209-.23c-.809,0-1.1.36-1.1.637,0,.9,2.513.254,2.513,1.6C1389.4-703.363,1388.883-702.855,1387.86-702.855Z" transform="translate(-1361.825 706.59)" fill="#5f5c5c"/>
    <path id="Path_414" data-name="Path 414" d="M1411.924-706.178h.406v3.592h-.406Z" transform="translate(-1383.223 706.244)" fill="#5f5c5c"/>
    <path id="Path_415" data-name="Path 415" d="M1424.2-702.83c-1.434,0-1.979-.684-1.979-1.873s.544-1.857,1.979-1.857,1.968.669,1.968,1.857S1425.634-702.83,1424.2-702.83Zm0-3.357c-1.115,0-1.558.465-1.558,1.484s.443,1.491,1.558,1.491,1.549-.48,1.549-1.491S1425.32-706.187,1424.2-706.187Z" transform="translate(-1391.879 706.565)" fill="#5f5c5c"/>
    <path id="Path_416" data-name="Path 416" d="M1457.481-702.586l-2.683-2.787-.25-.277-.013.005.009.388v2.671h-.371v-3.592h.383l2.577,2.707.256.278.009-.01-.009-.383,0-2.586h.361v3.587Z" transform="translate(-1418.73 706.244)" fill="#5f5c5c"/>
    <path id="Path_417" data-name="Path 417" d="M1485.361-703.49h-2.483l-.472.9h-.438l1.932-3.592h.451l1.938,3.592h-.46Zm-1.408-2.055-.891,1.7h2.116l-.876-1.7-.165-.343h-.013Z" transform="translate(-1442.09 706.244)" fill="#5f5c5c"/>
    <path id="Path_418" data-name="Path 418" d="M1517.315-702.978l-.013.391h-2.885v-3.592h.4v3.2Z" transform="translate(-1469.362 706.244)" fill="#5f5c5c"/>
    <path id="Path_419" data-name="Path 419" d="M1537.752-702.855a2.907,2.907,0,0,1-1.4-.34l.064-.377a2.643,2.643,0,0,0,1.343.35c.76,0,1.153-.333,1.153-.73,0-.939-2.513-.312-2.513-1.608,0-.5.414-1.03,1.477-1.03a3.26,3.26,0,0,1,1.278.239l-.064.36a3.361,3.361,0,0,0-1.209-.23c-.809,0-1.1.36-1.1.637,0,.9,2.513.254,2.513,1.6C1539.3-703.363,1538.774-702.855,1537.752-702.855Z" transform="translate(-1487.797 706.59)" fill="#5f5c5c"/>
  </g>
  <g id="Group_327" data-name="Group 327" transform="translate(0 0)">
    <g id="Group_324" data-name="Group 324" transform="translate(0 19.216)">
      <path id="Path_420" data-name="Path 420" d="M1235.375-764.3c-.148-.41-1.295-3.642-1.9-5.32.012.026-.164-.685-.632-.693-.142-.026-1.036-.019-1.036-.019s-.506-.075-.8.723c-.611,1.677-1.769,4.888-1.919,5.3-.193-.6-1.96-6.142-1.96-6.142h-1.809l2.82,8.707h1.688s2.177-5.719,2.386-6.267c.2.552,2.293,6.267,2.293,6.267h1.767l2.908-8.707h-1.782Z" transform="translate(-1225.326 770.447)" fill="#5f5c5c"/>
      <path id="Path_421" data-name="Path 421" d="M1319.229-763.675v-1.642h5v-1.524h-5v-1.475a.48.48,0,0,1,.526-.474h5.815c.628,0,.716-1.522.716-1.522h-6.877a1.731,1.731,0,0,0-1.953,1.749v5.142a1.852,1.852,0,0,0,1.993,1.8h6.888s.064-1.485-.748-1.523l-5.833.005A.479.479,0,0,1,1319.229-763.675Z" transform="translate(-1302.755 770.333)" fill="#5f5c5c"/>
    </g>
    <path id="Path_422" data-name="Path 422" d="M1487.4-769.613a1.44,1.44,0,0,0-1.268-.862h-1.413a1.458,1.458,0,0,0-1.271.862l-3.748,7.85h2.03l.787-1.67h5.819l.786,1.67h2.026Zm-4.346,4.861s1.212-2.7,1.817-3.844a.646.646,0,0,1,.548-.392.582.582,0,0,1,.554.387c.611,1.141,1.824,3.847,1.824,3.847Z" transform="translate(-1439.108 789.686)" fill="#5f5c5c"/>
    <g id="Group_325" data-name="Group 325" transform="translate(24.671 19.221)">
      <path id="Path_423" data-name="Path 423" d="M1381.65-763.713c0-1.618,0-6.7,0-6.7h-1.716v6.938a1.639,1.639,0,0,0,1.7,1.769h5.786s.083-1.508-.733-1.508h-4.532A.5.5,0,0,1,1381.65-763.713Z" transform="translate(-1379.935 770.416)" fill="#5f5c5c"/>
    </g>
    <path id="Path_424" data-name="Path 424" d="M1433.721-763.724c0-1.619,0-6.7,0-6.7h-1.715v6.939a1.64,1.64,0,0,0,1.705,1.769h4.927s.318-.6.73-1.508h-5.136A.5.5,0,0,1,1433.721-763.724Z" transform="translate(-1399.026 789.647)" fill="#5f5c5c"/>
    <g id="Group_326" data-name="Group 326" transform="translate(5.595 0)">
      <path id="Path_425" data-name="Path 425" d="M1359.726-834.113c-2.471-.255-6.079,1.539-6.906,1.876a18.674,18.674,0,0,1-5.213,1.592c-4.922.54-7.452-2.69-9.055-4.038a7.637,7.637,0,0,0-1.931-1.328,2.725,2.725,0,0,0-1.217-.25c-.132.011-.475.053-.48.219s.388.1.935.5a11.9,11.9,0,0,1,1.438,1.236c.644.665,1.409,1.506,2.073,2.153,3.282,3.209,5.312,3.27,6.206,3.357,4.192.407,7.453-1.566,10.427-2.8,3.419-1.423,5.349-1.083,6.332.6.15.257.358.128.305-.316A3.094,3.094,0,0,0,1359.726-834.113Z" transform="translate(-1323.031 844.979)" fill="#5f5c5c"/>
      <path id="Path_426" data-name="Path 426" d="M1269.077-875.514a3.551,3.551,0,0,0-2.211-1.047,13.008,13.008,0,0,0-2.784-.049,5.836,5.836,0,0,1-1.3.039c-.487-.091-.48-.562-.34-.943.068-.182.24-.38.248-.574a.452.452,0,0,0-.088-.267.59.59,0,0,0-.108-.124c-.076-.07-.094-.068-.062-.173a.753.753,0,0,1,.156-.291c.074-.081.2-.1.219-.219s-.083-.191-.185-.234c-.125-.054-.438-.316-.286-.451a.923.923,0,0,0,.316-.65.6.6,0,0,0-.257-.522,1.03,1.03,0,0,1-.5-.591c-.021-.124.392-.34.493-.408a9.42,9.42,0,0,0,1.879-1.635,5.36,5.36,0,0,0,.312-1.57,3.939,3.939,0,0,1,1.864-2.172,2.456,2.456,0,0,0,.441-.531,3.733,3.733,0,0,1,3.133-1.213c1.788.041,3.308,1.16,4.705,2.148,1.542,1.089,3.085,2.181,4.7,3.172,4.534,2.779,7.311,1.129,10.661-.333,4.078-1.781,5.249-1.311,6.344-.109.2.216.293-.037.157-.5a3.1,3.1,0,0,0-3.251-2.063,16.175,16.175,0,0,0-4.9,1.537c-1.717.767-3.819,2.115-7.919,0a35.5,35.5,0,0,1-4.084-2.7,18.422,18.422,0,0,0-4.259-2.472,6.011,6.011,0,0,0-4.659.113,3.228,3.228,0,0,0-1.7,1.7,1.462,1.462,0,0,1-.14.367.537.537,0,0,1-.1.1,5.912,5.912,0,0,0-1.272.918,4.345,4.345,0,0,0-1,2.138c-.057.247-.1.5-.147.748a1.116,1.116,0,0,1-.35.675,20.046,20.046,0,0,1-1.953,1.4,1.277,1.277,0,0,0-.377.28c-.225.355.093.806.335,1.042.138.133.365.255.386.46a.571.571,0,0,1-.211.443c-.058.059-.175.114-.188.2a.861.861,0,0,0,0,.3.851.851,0,0,0,.421.5c-.309.133-.825.665-.422.976.239.183.22.327.152.59a3.523,3.523,0,0,0-.126.8,1.124,1.124,0,0,0,.568,1.1,3.134,3.134,0,0,0,1.512.16c1.911-.084,4.07-.58,5.691.739a5.8,5.8,0,0,1,1.171,1.634c.078.115.269.1.249-.077A4.286,4.286,0,0,0,1269.077-875.514Z" transform="translate(-1260.389 890.869)" fill="#5f5c5c"/>
      <path id="Path_427" data-name="Path 427" d="M1324.479-858.567c2.349,1.194,4.744,2.272,11.14-.674h0a.206.206,0,0,1,.032-.018c4.15-1.91,6.329-2.254,7.728-.2.1.15.32.1.214-.433a3.013,3.013,0,0,0-2.96-2.542c-1.872-.168-4.723,1.142-4.723,1.142-5,2.249-6.119,2.194-8.01,1.9-3.114-.492-6.791-3.656-8-4.628s-2.652-1.974-4.294-1.776a2.83,2.83,0,0,0-1.086.347c-.122.071-.625.358-.545.537.057.129.252.089.356.069.212-.036.423-.073.637-.1a5.067,5.067,0,0,1,3.827,1.552C1320.756-861.682,1322.539-859.553,1324.479-858.567Z" transform="translate(-1305.422 869.82)" fill="#5f5c5c"/>
    </g>
  </g>
</svg>
